<?xml version="1.0" encoding="utf-8"?>
<!-- Generator: Adobe Illustrator 26.0.1, SVG Export Plug-In . SVG Version: 6.00 Build 0)  -->
<svg version="1.1" id="Layer_1" xmlns="http://www.w3.org/2000/svg" xmlns:xlink="http://www.w3.org/1999/xlink" x="0px" y="0px"
	 viewBox="0 0 1920 1080" style="enable-background:new 0 0 1920 1080;" xml:space="preserve">
<style type="text/css">
	.st0{fill:none;}
	.st1{fill:#DBF0F5;}
	.st2{fill:#B6E2EC;}
	.st3{fill:url(#New_Pattern);}
</style>
<pattern  width="500" height="500" patternUnits="userSpaceOnUse" id="New_Pattern" viewBox="0 -500 500 500" style="overflow:visible;">
	<g>
		<rect y="-500" class="st0" width="500" height="500"/>
		<rect x="0" y="-500" class="st1" width="500" height="500"/>
		<g>
			<path class="st2" d="M406.9-288.5c-5.6-2.7-11.2-5.5-16.8-8.4c-2.7-1.4-5.5-2.9-8.2-4.3c-0.7-0.3-1.3-0.7-2-1
				c-0.7-0.4-1.5-0.7-2.1-1.3c-1.1-1-0.1-2.5,0.5-3.5c3.1-5.5,6.5-10.9,10-16.1c1.8-2.6,3.6-5.3,5.5-7.8c0.4-0.6,0.8-1.3,1.6-0.8
				c0.6,0.4,1.2,0.8,1.7,1.3c1.2,0.9,2.4,1.9,3.6,3c4.6,3.9,8.8,8.2,13.4,12.1c4.4,3.8,9.1,7.5,14.4,10c2.3,1.1,4.9,1.8,7.5,1.4
				c2.4-0.4,4.7-1.8,5.6-4.1c0.3-0.7,0.3-1.5,0.4-2.2c0.1-1.4,0.3-2.7,0.4-4.1c0.7-9.4,1.1-18.9,1-28.3c0-1.2,0-2.4-0.1-3.5
				c0-0.6-1-0.7-1,0c0.2,9.8-0.1,19.6-0.8,29.4c-0.2,2.6-0.3,5.4-0.7,7.9c-0.3,1.8-2.1,3.2-3.8,3.7c-2.6,0.9-5.4,0.2-7.9-0.8
				c-5.5-2.4-10.3-6.2-14.7-10.1c-4.6-4-8.9-8.4-13.6-12.4c-1.1-1-2.3-1.9-3.5-2.8c-0.8-0.6-2-1.9-3.1-1.4c-0.5,0.2-0.9,0.7-1.2,1.2
				c-0.5,0.7-1,1.3-1.4,2c-0.9,1.3-1.9,2.6-2.8,4c-3.7,5.3-7.1,10.8-10.4,16.4c-1,1.8-3.4,4.7-1.2,6.6c0.5,0.4,1.2,0.7,1.8,1.1
				c0.7,0.4,1.4,0.8,2.1,1.2c1.4,0.7,2.8,1.5,4.2,2.2c5.6,3,11.2,5.8,16.9,8.6c1.4,0.7,2.7,1.3,4.1,2
				C406.9-287.4,407.5-288.2,406.9-288.5L406.9-288.5z"/>
			<path class="st2" d="M406.6-287.4c1.2,2,3.2,3.3,5.5,3.7c2.6,0.4,5.1-0.5,7.2-2c1.3-0.9,2.5-1.9,3.7-2.9c1.3-1,2.6-2.1,3.9-3.1
				c2.6-2,5.2-4.1,7.7-6.2c1.2-1,2.3-2,3.5-3c1.1-0.9,2.2-1.9,3.2-3c0.9-1,1.7-2.2,2.2-3.5c0.5-1.3,0.7-2.7,0.7-4
				c0.3-6.6,0.6-13.3,0.9-19.9c0.2-3.7,0.3-7.4,0.5-11.1c0-0.9,0.1-1.8,0.1-2.7c0-0.6-0.1-1.3-0.5-1.7c-0.7-0.6-2.2-0.4-2.9,0.2
				c-0.5,0.4,0.2,1.1,0.6,0.7c0.3-0.2,0.9-0.3,1.2-0.2c0.6,0.1,0.6,0.8,0.6,1.3c0,1.5-0.1,3-0.2,4.5c-0.1,3-0.3,6-0.4,9
				c-0.3,6.1-0.5,12.2-0.8,18.3c-0.1,1.4,0,2.7-0.3,4.1c-0.3,1.3-0.9,2.5-1.7,3.6c-1.6,2.2-3.9,3.9-5.9,5.6c-4.5,4-9.3,7.6-14,11.4
				c-2.3,1.9-4.6,3.8-7.7,3.9c-2.5,0.1-4.9-1-6.2-3.2C407.1-288.4,406.3-287.9,406.6-287.4L406.6-287.4z"/>
			<path class="st2" d="M423.6-304.1c-4.6,4.2-9.1,8.4-13.6,12.6c-1,0.9-2,1.9-3,2.8c-0.4,0.4,0.2,1.1,0.6,0.7
				c4.3-4,8.6-8.1,13-12.1c1.2-1.1,2.5-2.3,3.7-3.4C424.7-303.8,424.1-304.5,423.6-304.1L423.6-304.1z"/>
			<path class="st2" d="M396.7-331.9c1.2-1.5,2.3-3.1,3.6-4.5c0.4-0.5,0.8-1,1.3-1.3c0.4-0.2,0.8-0.4,1.2-0.6c1-0.4,2-0.8,3.1-0.9
				c0.6-0.1,1.2-0.1,1.6,0.4c1.3,1.7,2.6,3.5,3.8,5.3c4.9,6.9,9.9,13.8,14.9,20.6c2.1,2.9,4.1,5.7,6.3,8.5c0.4,0.5,1.1-0.2,0.7-0.6
				c-1.9-2.5-3.8-5.1-5.6-7.6c-2.7-3.6-5.3-7.3-7.9-11c-2.5-3.4-4.9-6.8-7.4-10.2c-1.3-1.9-2.6-3.8-4-5.6c-1-1.4-3.4-0.6-4.7-0.1
				c-0.9,0.3-1.8,0.7-2.6,1.2c-1.3,1-2.4,2.5-3.4,3.8c-0.6,0.7-1.2,1.5-1.7,2.2C395.5-331.9,396.4-331.4,396.7-331.9L396.7-331.9z"
				/>
			<path class="st2" d="M408.7-339.1c0.4-1.2,1-2.1,2.1-2.6c1-0.6,2.2-1,3.3-1.3c0.6-0.2,1.9-0.6,2.4-0.4c0.4,0.1,0.6,0.7,0.8,1
				c0.2,0.4,0.4,0.8,0.6,1.2c0.4,0.9,0.8,1.8,1.2,2.6c1.6,3.8,3.4,7.6,5.2,11.3c1.8,3.7,3.6,7.3,5.5,10.9c2.1,3.9,4.2,7.8,6.1,11.8
				c0.3,0.6,1.1,0.1,0.9-0.4c-1.8-3.8-3.8-7.4-5.7-11.1c-2-3.9-4-7.8-5.9-11.7c-1.9-3.9-3.8-7.9-5.5-12c-0.4-0.9-0.8-1.8-1.3-2.7
				c-0.3-0.6-0.7-1.5-1.4-1.8c-0.8-0.4-1.9,0-2.7,0.2c-1.3,0.4-2.7,0.9-3.9,1.5c-1.3,0.7-2,1.8-2.5,3.2
				C407.6-338.8,408.5-338.5,408.7-339.1L408.7-339.1z"/>
			<path class="st2" d="M419.1-341.7c0.7-1,1.6-2.2,2.7-2.8c0.9-0.5,2.1-0.1,3.1-0.1c0.6,0,0.7-0.9,0-1c-1.2,0-2.4-0.4-3.5,0.2
				c-1.3,0.7-2.2,2-3.1,3.2C417.9-341.7,418.7-341.2,419.1-341.7L419.1-341.7z"/>
			<path class="st2" d="M426.4-342.9c0-0.5-0.1-1,0-1.4c0-0.1,0.1-0.3,0.1-0.4c0,0,0.1-0.1,0.1-0.1c0-0.1,0,0-0.1,0
				c0,0,0.2-0.1,0.1-0.1c0.1,0,0.2-0.1,0.4-0.1c0.3-0.1,0.6-0.1,0.9-0.2c1.4-0.3,2.9-0.5,4.2-0.6c0.3,0,0.5-0.2,0.5-0.5
				c0-0.2-0.2-0.5-0.5-0.5c-1.3,0.1-2.5,0.3-3.8,0.5c-0.6,0.1-1.1,0.2-1.7,0.4c-0.4,0.1-0.8,0.2-1,0.7c-0.4,0.8-0.3,1.7-0.3,2.6
				c0,0.3,0.3,0.4,0.6,0.4C426.3-342.4,426.4-342.7,426.4-342.9L426.4-342.9z"/>
			<path class="st2" d="M432.5-345.9c0.5-0.4-0.2-1.1-0.6-0.7C431.4-346.2,432-345.5,432.5-345.9L432.5-345.9z"/>
			<path class="st2" d="M433.4-345.5c0.4-0.2,0.7-0.5,1-0.7c0.2-0.1,0.3-0.2,0.4-0.2c0.2,0,0.5,0,0.7,0.1c1.1,0.2,2.3,0.3,3.5,0.3
				c0.6,0,0.7-0.9,0-1c-1.2-0.1-2.4-0.2-3.6-0.4c-0.5-0.1-0.9,0-1.4,0.2c-0.4,0.2-0.7,0.5-1.1,0.7
				C432.4-346.1,432.9-345.2,433.4-345.5L433.4-345.5z"/>
			<path class="st2" d="M439.5-344.5c0.2-0.2,0.3-0.4,0.5-0.7c0-0.1,0.1-0.1,0.1-0.2c0,0,0.1-0.1,0.1-0.1c0,0,0.1-0.1,0,0
				c0,0.1,0,0,0,0c0,0,0.1-0.1,0.1-0.1c0,0,0.1-0.1,0.1-0.1c0,0,0,0,0.1-0.1c0.1-0.1-0.1,0,0,0c0,0,0,0,0.1,0c0,0-0.1,0,0,0
				c0.1,0,0.1,0,0.2,0c0.1,0,0.2,0,0.3,0c0.4,0.1,0.9,0.1,1.3,0.2c0.3,0,0.5-0.2,0.5-0.5c0-0.3-0.2-0.5-0.5-0.5
				c-0.5-0.1-0.9-0.2-1.4-0.2c-0.4-0.1-0.8,0-1.1,0.2c-0.3,0.2-0.5,0.5-0.7,0.7c-0.1,0.1-0.2,0.2-0.3,0.4c0,0.1-0.1,0.1-0.1,0.2
				c0,0-0.2,0.2,0,0.1c-0.2,0.2-0.2,0.5,0,0.7C439-344.4,439.3-344.3,439.5-344.5L439.5-344.5z"/>
			<path class="st2" d="M438.6-346.3c-0.6,10.3-0.6,20.7,0,31c0.1,2.9,0.3,5.8,0.6,8.7c0,0.6,1,0.7,1,0c-0.8-10.3-1.1-20.7-0.8-31
				c0.1-2.9,0.2-5.8,0.3-8.7C439.6-346.9,438.7-347,438.6-346.3L438.6-346.3z"/>
			<path class="st2" d="M432.7-345.8c0.6,10.5,2.1,21,4.2,31.3c0.6,2.9,1.2,5.8,1.9,8.7c0.1,0.6,1.1,0.4,0.9-0.2
				c-2.5-10.1-4.3-20.4-5.3-30.8c-0.3-3-0.6-6-0.7-8.9C433.6-346.3,432.7-346.4,432.7-345.8L432.7-345.8z"/>
			<path class="st2" d="M431.8-346.1c0.6,3.1,1.1,6.2,1.7,9.3c0.1,0.6,1,0.4,0.9-0.2c-0.6-3.1-1.1-6.2-1.7-9.3
				C432.6-347,431.7-346.7,431.8-346.1L431.8-346.1z"/>
			<path class="st2" d="M424.6-344.9c2.8,10.4,6.3,20.7,10.1,30.8c1,2.8,2.1,5.6,3.2,8.4c0.2,0.6,1.1,0.1,0.9-0.4
				c-3.9-10-7.6-20.1-10.7-30.3c-0.9-2.9-1.7-5.7-2.5-8.6C425.4-345.7,424.4-345.5,424.6-344.9L424.6-344.9z"/>
			<path class="st2" d="M401.5-336.5c6.9,8.4,14,16.6,21.4,24.5c2.1,2.2,4.3,4.5,6.4,6.7c0.4,0.4,1.1-0.2,0.7-0.6
				c-7.6-7.8-14.9-15.8-21.9-24c-2-2.4-4-4.7-5.9-7.1C401.8-337.6,401.1-337,401.5-336.5L401.5-336.5z"/>
			<path class="st2" d="M404-338.9c1.6,1.9,3.1,3.9,4.7,5.8c1.9,2.3,3.7,4.7,5.5,7c1.9,2.5,3.9,4.9,5.8,7.4c1.9,2.4,3.7,4.7,5.6,7.1
				c1.6,2,3.2,4,4.8,6c0.2,0.2,0.4,0.4,0.5,0.6c0.2,0.2,0.5-0.1,0.4-0.3c-1.6-1.9-3.2-3.8-4.7-5.8c-1.9-2.3-3.7-4.6-5.6-7
				c-1.9-2.5-3.9-4.9-5.8-7.4c-1.9-2.4-3.7-4.7-5.6-7.1c-1.6-2-3.2-4-4.8-6c-0.2-0.2-0.3-0.4-0.5-0.6
				C404.1-339.5,403.8-339.2,404-338.9L404-338.9z"/>
			<path class="st2" d="M409.9-341.2c1.4,2.1,2.8,4.2,4.1,6.3c1.7,2.5,3.3,5,5,7.5c1.8,2.6,3.5,5.3,5.2,7.9c1.7,2.5,3.4,5.1,5,7.6
				c1.4,2.2,2.8,4.4,4.2,6.6c0.1,0.2,0.3,0.5,0.4,0.7c0.2,0.3,0.6,0,0.4-0.2c-1.3-2.2-2.7-4.3-4.1-6.4c-1.6-2.5-3.3-5-4.9-7.5
				c-1.7-2.6-3.5-5.3-5.2-7.9c-1.7-2.5-3.4-5-5-7.6c-1.4-2.1-2.9-4.3-4.3-6.4c-0.1-0.2-0.3-0.5-0.4-0.7
				C410.1-341.7,409.7-341.4,409.9-341.2L409.9-341.2z"/>
			<path class="st2" d="M412.2-342.8c1.4,2.1,2.7,4.2,4,6.4c1.6,2.6,3.1,5.2,4.7,7.8c1.6,2.8,3.3,5.6,4.9,8.3c1.6,2.7,3.1,5.4,4.7,8
				c1.3,2.3,2.7,4.5,4,6.8c0.1,0.2,0.3,0.5,0.4,0.7c0.2,0.3,0.6,0,0.4-0.2c-1.3-2.2-2.6-4.4-3.9-6.6c-1.6-2.6-3.1-5.3-4.7-7.9
				c-1.6-2.8-3.3-5.6-4.9-8.4c-1.6-2.7-3.1-5.3-4.7-8c-1.3-2.2-2.7-4.4-4.1-6.6c-0.1-0.2-0.3-0.5-0.4-0.7
				C412.5-343.3,412.1-343,412.2-342.8L412.2-342.8z"/>
			<path class="st2" d="M414.6-343.5c1.3,2.1,2.5,4.3,3.7,6.5c1.4,2.6,2.8,5.3,4.2,7.9c1.5,2.8,2.9,5.6,4.4,8.4
				c1.4,2.7,2.8,5.4,4.2,8.1c1.2,2.3,2.5,4.6,3.7,6.9c0.1,0.2,0.3,0.5,0.4,0.7c0.2,0.3,0.6,0,0.4-0.2c-1.3-2.2-2.5-4.4-3.7-6.7
				c-1.4-2.7-2.8-5.3-4.2-8c-1.5-2.8-2.9-5.6-4.4-8.4c-1.4-2.7-2.8-5.4-4.3-8c-1.2-2.3-2.5-4.5-3.8-6.7c-0.1-0.2-0.3-0.5-0.4-0.7
				C414.9-344,414.4-343.8,414.6-343.5L414.6-343.5z"/>
			<path class="st2" d="M421.5-344.5c2,5,4,9.9,6,14.9c2.2,5.6,4.5,11.1,6.6,16.7c1,2.6,2.1,5.3,3.1,7.9c0.1,0.3,0.5,0.1,0.4-0.2
				c-1.9-5.1-3.9-10.1-5.9-15.1c-2.2-5.6-4.4-11.1-6.7-16.6c-1.1-2.6-2.1-5.2-3.2-7.8C421.8-345,421.4-344.8,421.5-344.5
				L421.5-344.5z"/>
			<path class="st2" d="M423.2-344.8c0.8,2.3,1.7,4.7,2.5,7c1,2.7,2,5.5,2.9,8.2c1,2.9,2.1,5.8,3.2,8.7c1,2.7,2.1,5.5,3.1,8.2
				c0.9,2.3,1.8,4.6,2.8,6.9c0.1,0.2,0.2,0.5,0.3,0.7c0.1,0.3,0.5,0.1,0.4-0.2c-0.9-2.2-1.8-4.4-2.7-6.7c-1-2.7-2.1-5.4-3.1-8.1
				c-1.1-2.9-2.1-5.7-3.2-8.6c-1-2.8-2-5.6-3-8.3c-0.9-2.4-1.7-4.8-2.6-7.2c-0.1-0.3-0.2-0.5-0.3-0.8
				C423.5-345.2,423.1-345.1,423.2-344.8L423.2-344.8z"/>
			<path class="st2" d="M426.9-345.6c1.5,5.1,2.9,10.2,4.4,15.2c1.6,5.5,3.2,11.1,4.8,16.6c0.7,2.4,1.5,4.9,2.2,7.3
				c0.1,0.3,0.6,0.2,0.5-0.1c-1.5-4.7-2.9-9.5-4.3-14.3c-1.6-5.6-3.2-11.2-4.8-16.8c-0.8-2.7-1.5-5.3-2.3-8
				C427.3-346,426.9-345.9,426.9-345.6L426.9-345.6z"/>
			<path class="st2" d="M429.2-345.7c1.3,5.1,2.6,10.3,3.8,15.4c1.4,5.6,2.8,11.2,4.2,16.7c0.6,2.5,1.3,4.9,2,7.4
				c0.1,0.3,0.5,0.2,0.5-0.1c-1.3-4.8-2.5-9.6-3.8-14.5c-1.4-5.7-2.8-11.3-4.2-17c-0.7-2.7-1.3-5.4-2-8
				C429.6-346.1,429.1-346,429.2-345.7L429.2-345.7z"/>
			<path class="st2" d="M439.2-310.5c-0.8-4.7-1.5-9.5-2-14.3c-0.6-4.7-1-9.4-1.5-14.2c-0.2-2.4-0.4-4.8-0.6-7.1
				c0-0.3-0.5-0.3-0.5,0c0.4,4.4,0.8,8.8,1.2,13.2c0.5,4.9,1,9.7,1.7,14.6c0.4,2.7,0.8,5.3,1.2,8
				C438.8-310.1,439.3-310.2,439.2-310.5L439.2-310.5z"/>
			<path class="st2" d="M440.3-306.8c0.1-5.1,0.2-10.1,0.3-15.2c0.1-5.1,0.2-10.1,0.3-15.2c0.1-2.9,0.1-5.7,0.2-8.6
				c0-0.3-0.5-0.3-0.5,0c-0.1,5.1-0.2,10.1-0.3,15.2c-0.1,5.1-0.2,10.1-0.3,15.2c-0.1,2.9-0.1,5.7-0.2,8.6
				C439.8-306.5,440.3-306.5,440.3-306.8L440.3-306.8z"/>
			<path class="st2" d="M440-307.8c-0.7-4.9-1.3-9.9-1.6-14.9c-0.4-5.1-0.6-10.3-0.7-15.5c0-2.7,0-5.5,0.1-8.2c0-0.3-0.5-0.3-0.5,0
				c-0.2,5-0.1,10,0.1,15c0.2,5.2,0.6,10.3,1.1,15.5c0.3,2.7,0.6,5.5,1,8.2C439.6-307.4,440-307.5,440-307.8L440-307.8z"/>
		</g>
		<g>
			<g>
				<path class="st2" d="M123.6-242C123.7-242,123.6-242,123.6-242C123.6-242.1,123.6-242.1,123.6-242
					C123.6-242,123.6-242,123.6-242C123.7-241.9,123.6-242.1,123.6-242c0,0,0,0.1,0,0.1C123.6-241.9,123.6-242,123.6-242
					c0,0.1,0,0.2,0,0.3c0,0,0-0.1,0-0.1c0,0.1,0,0.2-0.1,0.3c0,0-0.1,0.1,0,0c0,0,0,0.1,0,0.1c0,0-0.1,0.1-0.1,0.1
					c0,0,0,0.1-0.1,0.1c0,0-0.1,0.1,0,0c0,0-0.1,0.1-0.1,0.1c0,0-0.1,0.1-0.1,0.1c0.1-0.1,0,0,0,0c0,0-0.1,0-0.1,0.1
					c-0.2,0.1-0.3,0.5-0.2,0.7c0.2,0.2,0.5,0.3,0.7,0.2c0.5-0.3,0.8-0.8,1-1.3c0.1-0.5,0.1-1-0.2-1.4c-0.2-0.2-0.6-0.2-0.7,0
					C123.4-242.6,123.4-242.3,123.6-242L123.6-242z"/>
				<path class="st2" d="M122.9-240.8c-6.3,2-12.4,4.4-18.6,6.9c-3,1.2-6.1,2.4-9.1,3.6c-1.5,0.6-3.1,1.1-4.6,1.7
					c-1.4,0.5-2.9,0.9-4.2,1.7c-2.3,1.5-4.4,3.8-5.1,6.5c-0.7,2.5,0,5.4,1.9,7.2c2.2,2,5.3,1.9,8,1c1.6-0.5,3.1-1.2,4.7-1.8
					c1.6-0.7,3.2-1.3,4.9-2c7.4-3.1,14.8-6.1,22.1-9.2c0.6-0.3,0.3-1.3-0.3-1c-6.2,2.6-12.4,5.2-18.6,7.7c-3.1,1.3-6.2,2.6-9.2,3.8
					c-2.6,1.1-5.8,2.6-8.7,1.8c-2.6-0.7-4.2-3.4-4-6.1c0.2-2.9,2.3-5.2,4.5-6.9c1.2-0.9,2.7-1.3,4.1-1.8c1.5-0.5,2.9-1,4.4-1.6
					c2.8-1.1,5.7-2.2,8.5-3.3c6.5-2.6,13-5.2,19.7-7.3C123.9-240,123.6-241,122.9-240.8L122.9-240.8z"/>
				<path class="st2" d="M48.3-241.6c-1.2-1.4-2-3.2-1.9-5c0.1-1.6,0.7-3.1,1.6-4.3c1.9-2.8,4.7-4.8,7.6-6.4
					c3.4-1.9,6.9-3.4,10.5-4.7c3.9-1.5,7.9-2.8,11.9-4c2-0.6,4.1-1.2,6.1-1.8c1.9-0.5,4.2-1.5,6.2-0.8c0.1,0-0.1-0.1,0,0
					c0.1,0,0.1,0.1,0.2,0.1c0.2,0.1,0.4,0.3,0.7,0.4c0.7,0.5,1.3,0.9,2,1.4c4,2.9,8,5.9,11.9,9c6.3,4.9,12.4,10.1,18.4,15.5
					c0.5,0.5,1.3-0.3,0.7-0.7c-5.7-5.2-11.5-10.2-17.5-14.9c-4.1-3.2-8.3-6.4-12.5-9.5c-0.7-0.5-1.5-1.1-2.2-1.6
					c-0.4-0.3-0.8-0.6-1.2-0.8c-1.5-0.7-3.6-0.2-5.2,0.2c-2.1,0.6-4.2,1.2-6.3,1.8c-4.2,1.3-8.5,2.6-12.6,4.2
					c-3.8,1.4-7.5,2.9-11,4.8c-5.1,2.8-12.6,8.5-9.7,15.3c0.4,0.9,0.9,1.7,1.6,2.5C48-240.3,48.8-241.1,48.3-241.6L48.3-241.6z"/>
				<path class="st2" d="M48.1-240.3c5.2,5.8,10.6,11.5,16.3,16.9c2.8,2.7,5.6,5.3,8.5,7.9c1.4,1.2,2.8,2.4,4.1,3.7
					c1.2,1.1,2.4,2.1,3.9,2.7c2.5,1.1,5.1,0.3,7.7-0.4c0.7-0.2,0.4-1.2-0.3-1c-2.2,0.6-4.5,1.4-6.7,0.6c-1.5-0.6-2.6-1.6-3.8-2.6
					c-1.3-1.2-2.7-2.4-4-3.6c-5.6-5-11-10.1-16.2-15.5c-3-3-5.8-6.1-8.7-9.3C48.4-241.6,47.7-240.9,48.1-240.3L48.1-240.3z"/>
				<path class="st2" d="M89-209.8c6-2.3,11.9-4.6,17.8-7c2.9-1.2,5.9-2.4,8.8-3.6c1.4-0.6,2.8-1.2,4.2-1.8c1.3-0.6,2.8-1.1,4.1-1.8
					c0.6-0.3,1.1-0.8,1.1-1.5c0.1-1.1-1-1.8-1.8-2.3c-0.6-0.3-1.1,0.6-0.5,0.9c0.4,0.3,1.6,0.9,1.2,1.5c-0.4,0.6-1.4,0.8-2,1.1
					c-2.7,1.2-5.3,2.3-8,3.4c-5.3,2.2-10.7,4.4-16.1,6.5c-3,1.2-6,2.3-9.1,3.5C88.1-210.6,88.4-209.6,89-209.8L89-209.8z"/>
				<path class="st2" d="M123-225.8c0.2-4.7,0.5-9.4,0.7-14.1c0-0.7-1-0.7-1.1,0c-0.2,4.7-0.5,9.4-0.7,14.1
					C121.9-225.1,122.9-225.1,123-225.8L123-225.8z"/>
				<path class="st2" d="M55.3-253.8c6.6,7.3,13.6,14.3,20.8,20.9c2.1,1.9,4.1,3.7,6.2,5.5c0.5,0.4,1.3-0.3,0.7-0.7
					c-7.5-6.4-14.6-13.2-21.4-20.3c-1.9-2-3.8-4.1-5.7-6.1C55.6-255,54.9-254.3,55.3-253.8L55.3-253.8z"/>
			</g>
			<path class="st2" d="M83.1-222c5-2.2,10-4.2,15.1-6.2c5.3-2.1,10.6-4.1,15.9-6.1c2.9-1.1,5.9-2.2,8.8-3.4
				c0.3-0.1,0.2-0.6-0.1-0.5c-5.3,2-10.6,4-15.8,6c-5.3,2-10.5,4-15.8,6.2c-2.8,1.1-5.5,2.3-8.3,3.5C82.5-222.3,82.8-221.9,83.1-222
				L83.1-222z"/>
			<path class="st2" d="M82.3-219.1c5.1-2.2,10.2-4.3,15.3-6.3c5.4-2.1,10.9-4.2,16.3-6.3c3-1.1,6-2.3,8.9-3.4
				c0.3-0.1,0.2-0.6-0.1-0.5c-5.4,2.1-10.8,4.1-16.2,6.2c-5.4,2.1-10.9,4.2-16.2,6.4c-2.8,1.1-5.6,2.3-8.4,3.5
				C81.7-219.5,81.9-219,82.3-219.1L82.3-219.1z"/>
			<path class="st2" d="M82.3-216.7c5.1-2.2,10.2-4.3,15.4-6.2c5.4-2.1,10.9-4.1,16.3-6.2c3-1.1,5.9-2.2,8.9-3.4
				c0.3-0.1,0.2-0.6-0.1-0.5c-5.4,2.1-10.8,4.1-16.2,6.1c-5.4,2-10.8,4.1-16.2,6.2c-2.8,1.1-5.6,2.3-8.4,3.5
				C81.7-217.1,81.9-216.6,82.3-216.7L82.3-216.7z"/>
			<path class="st2" d="M83.1-214.4c5-2.2,10-4.2,15.1-6.2c5.3-2.1,10.6-4.1,15.9-6.1c2.9-1.1,5.9-2.2,8.8-3.4
				c0.3-0.1,0.2-0.6-0.1-0.5c-5.3,2-10.6,4-15.8,6c-5.3,2-10.5,4-15.8,6.2c-2.8,1.1-5.5,2.3-8.3,3.5
				C82.5-214.7,82.8-214.2,83.1-214.4L83.1-214.4z"/>
			<path class="st2" d="M84.5-212.8c4.8-2.1,9.7-4.1,14.6-6c5-2,10.1-3.9,15.2-5.8c2.9-1.1,5.8-2.2,8.6-3.3c0.3-0.1,0.2-0.6-0.1-0.5
				c-5.1,2-10.3,3.9-15.4,5.9c-5,1.9-10,3.9-15,5.9c-2.7,1.1-5.4,2.2-8.1,3.4C83.9-213.2,84.2-212.7,84.5-212.8L84.5-212.8z"/>
		</g>
		<g>
			<path class="st2" d="M252.8-323.6c6.6,4.5,13.1,9.2,19.8,13.6c1.7,1.1,3.3,2.2,5,3.3c0.9,0.5,1.7,1.1,2.6,1.6
				c0.4,0.2,1.3,0.5,1.2,1.1c0,0.3-0.4,0.6-0.5,0.8c-0.2,0.3-0.4,0.6-0.6,1c-0.3,0.7-0.6,1.3-0.8,2.1c-0.3,1.2-0.4,2.4-0.4,3.7
				c0,0.4,0,0.8,0.1,1.2c0,0.1,0.1,0.2,0.1,0.3c0,0.3,0-0.1,0,0c0.1,0.4,0.1,0.7-0.3,0.9c-0.8,0.5-1.7,0.9-2.5,1.2
				c-3.3,1.5-6.8,2.7-10.2,4c-3.5,1.3-7,2.6-10.6,3.9c-0.9,0.3-1.9,0.7-2.8,0.9c-0.3,0.1-0.5,0.1-0.8,0c-0.9-0.5-2.2-2.3-3.1-1
				c-0.3,0.5-0.6,1.1-0.7,1.7c-0.1,0.3,0.1,0.7-0.1,1c-0.1,0.2-0.3,0.3-0.5,0.4c-0.8,0.4-1.7,0.8-2.6,1.2c-3.3,1.5-6.6,2.9-9.9,4.3
				c-3.9,1.7-7.7,3.3-11.6,5c-2.6,1.1-5.1,2.2-7.8,3.1c-0.2,0.1-0.5,0.2-0.7,0.2c-0.6,0.1-0.9-0.8-0.3-0.9c0.5-0.1,1-0.4,1.5-0.5
				c1-0.4,2-0.8,3.1-1.2c3-1.2,6-2.5,9-3.8c5.8-2.5,11.6-4.9,17.3-7.5c0.6-0.3,1.1-0.5,1.7-0.8c0.2-0.1,0.1-0.1,0,0
				c0,0.1-0.1,0.4-0.1,0.3c-0.1-0.2,0-0.5,0-0.7c0.1-0.9,0.6-1.9,1.2-2.6c0.7-0.8,1.9-0.6,2.7-0.1c0.4,0.3,1,0.7,1.4,1.1
				c0.3,0.3-0.1,0-0.1,0c-0.1-0.1-0.1,0,0,0c0.6-0.3,1.3-0.4,1.8-0.6c6-2,11.9-4.3,17.7-6.6c2.1-0.8,4.3-1.6,6.2-2.7
				c0.1-0.1,0.2-0.1,0.3-0.2c0.1-0.1,0,0,0,0c0,0,0,0,0,0c0-0.1-0.1,0.2-0.1,0.2c0,0.2,0.2,0.7,0,0.3c0-0.1-0.1-0.1-0.1-0.2
				c-0.1-0.2-0.1-0.5-0.1-0.8c-0.3-1.9-0.1-3.9,0.5-5.7c0.2-0.6,0.4-1.1,0.7-1.7c0.1-0.3,0.3-0.5,0.4-0.7c0.2-0.3,0.4-0.5,0.6-0.8
				c0,0.1,0,0.3,0,0.4c0,0.2-0.2,0-0.3-0.1c-0.2-0.1-0.4-0.2-0.6-0.3c-0.5-0.3-1-0.6-1.5-0.9c-1-0.6-1.9-1.2-2.9-1.8
				c-1.9-1.2-3.8-2.5-5.7-3.8c-3.7-2.5-7.4-5-11-7.6c-2.1-1.4-4.1-2.9-6.2-4.3C251.8-323.1,252.3-323.9,252.8-323.6L252.8-323.6z"/>
			<path class="st2" d="M252.3-322.8c-8.3,1.3-16.6,4.4-22.7,10.3c-1.8,1.7-3.4,3.7-4.7,5.8c-0.3,0.5-1.2,0.1-0.8-0.5
				c4.8-7.6,12.6-12.4,21-15c2.3-0.7,4.7-1.2,7-1.6C252.6-323.8,252.9-322.9,252.3-322.8L252.3-322.8z"/>
			<path class="st2" d="M223.9-306.5c-8.6-3.1-18-3.8-26.8-0.8c-4.7,1.6-9.1,4.2-12.6,7.7c-0.1,0.1-0.5,0.6-0.6,0.6
				c0,0,0.1-0.2,0.1-0.3c0.1-0.1-0.1-0.1,0,0c0.1,0.1,0.1,0.3,0.1,0.4c0.1,0.3,0.3,0.7,0.4,1c0.6,1.5,1.5,3.6,0.8,5.3
				c-0.3,0.6-1.1,0.1-0.8-0.5c0.3-0.7,0-1.6-0.1-2.2c-0.2-0.9-0.5-1.7-0.8-2.5c-0.2-0.4-0.5-1-0.5-1.4c0-0.3,0.3-0.5,0.5-0.7
				c1.3-1.3,2.7-2.5,4.3-3.6c5.7-4,12.5-6.3,19.5-6.7c5.8-0.3,11.5,0.8,16.9,2.7C224.7-307.2,224.5-306.2,223.9-306.5L223.9-306.5z"
				/>
			<path class="st2" d="M214.4-267.8c-3-3-6.4-5.7-9.7-8.4c-4.6-3.8-9.3-7.5-14-11.1c-2.1-1.6-4.1-3.1-6.3-4.5
				c-0.5-0.3,0-1.2,0.5-0.8c4.3,2.9,8.3,6.1,12.3,9.2c4.5,3.6,9,7.2,13.4,10.9c1.5,1.3,3,2.6,4.4,4
				C215.6-268.1,214.9-267.4,214.4-267.8L214.4-267.8z"/>
			<path class="st2" d="M249.2-285.5c-4-3-9-3.6-13.8-3c-2.7,0.3-5.3,1.1-7.8,1.9c-2.2,0.7-4.3,1.6-6.4,2.6c-2,1-4,2.3-5.7,3.7
				c-0.9,0.7-1.7,1.6-2.5,2.4c-0.7,0.8-1.3,1.3-2.3,0.6c-2.2-1.6-4.4-3.4-6.5-5.2c-2.2-1.7-4.3-3.4-6.5-5.1
				c-4.9-3.8-9.7-7.7-14.6-11.5c-0.5-0.4,0.2-1.1,0.7-0.7c8.6,6.8,17.2,13.6,25.8,20.4c0.5,0.4,1,0.9,1.6,1.3
				c0.4,0.3,0.5,0.2,0.8-0.1c0.2-0.2,0.4-0.4,0.6-0.7c0.8-0.8,1.6-1.6,2.5-2.3c1.7-1.4,3.6-2.6,5.6-3.6c4.3-2.2,9-3.8,13.7-4.6
				c5.2-0.8,10.9-0.3,15.3,3C250.2-286,249.7-285.2,249.2-285.5L249.2-285.5z"/>
			<path class="st2" d="M280.1-303.4c-4.9-0.7-10.1,0.1-14.8,1.9c-2.3,0.9-4.4,2.2-6.4,3.5c-1.9,1.3-3.7,2.7-5.3,4.4
				c-1.8,1.9-3.2,4.2-3.9,6.7c-0.2,0.6-1.1,0.4-0.9-0.2c1.4-4.7,4.8-8.3,8.7-11.1c4.2-3,8.9-5.3,14.1-6.1c2.9-0.5,5.8-0.5,8.7-0.1
				C281-304.2,280.8-303.3,280.1-303.4L280.1-303.4z"/>
			<path class="st2" d="M279.1-296.4c0.7,0.6,1.5,1.2,2.2,1.8c0.6,0.5,1.4,1,1.9,1.7c0.9,1,0.7,2.5-0.4,3.3c-1.1,0.9-2.8,1-4.1,1.4
				c-1.5,0.4-2.9,0.8-4.4,1.2c-6.1,1.7-12.2,3.6-18.1,5.8c-0.8,0.3-1.5,0.6-2.1,1.1c-0.6,0.5-1.1,0.9-1.8,1.3
				c-1.6,0.7-3.3,0.9-5,0.4c-0.6-0.2-0.4-1.1,0.2-0.9c1.5,0.4,3.1,0.3,4.4-0.4c1.1-0.5,1.8-1.6,3-2c2.6-1,5.2-1.9,7.8-2.7
				c5.5-1.8,11.1-3.5,16.7-4.9c0.8-0.2,1.6-0.3,2.3-0.7c0.8-0.4,1.4-1.3,0.7-2.1c-0.5-0.6-1.2-1.1-1.8-1.6c-0.8-0.6-1.5-1.3-2.3-1.9
				C277.9-296.1,278.6-296.8,279.1-296.4L279.1-296.4z"/>
			<path class="st2" d="M247.5-278.7c-5.6,2.8-11.3,5.7-16.9,8.5c-2.6,1.3-5.3,2.6-7.8,4.2c-1.3,0.8-2.5,1.6-3.8,2.3
				c-1.1,0.6-2.4,1.4-3.6,1.5c-1.2,0.1-2.2-0.7-3.1-1.4c-1.2-1-2.4-2-3.6-3c-2.4-2-4.8-4-7.2-6c-4.8-4-9.6-8-14.5-12
				c-1.3-1.1-2.7-2.2-4-3.3c-1-0.9-2.4-1.7-2.8-3.1c-0.3-1.2,0.1-2.5,1-3.3c1-0.9,2.3-1.1,3.6-0.8c0.6,0.1,0.4,1.1-0.2,0.9
				c-1.1-0.2-2.5,0.1-3.1,1.1c-0.7,1.1-0.3,2.2,0.6,3.1c1,0.9,2.1,1.8,3.2,2.7c1.1,0.9,2.2,1.9,3.4,2.8c4.4,3.7,8.8,7.4,13.2,11
				c2.2,1.9,4.5,3.7,6.7,5.6c1.1,0.9,2.2,1.9,3.4,2.8c0.9,0.8,2,1.9,3.2,2c0.7,0,1.3-0.3,1.9-0.6c0.6-0.3,1.3-0.7,1.9-1
				c1.1-0.7,2.2-1.4,3.4-2.1c2.4-1.5,4.9-2.7,7.4-4c5.8-2.9,11.6-5.8,17.4-8.8C247.5-279.8,248-278.9,247.5-278.7L247.5-278.7z"/>
			<path class="st2" d="M248.9-286c-6.2-5.6-12.6-11-19.3-16.1c-1.9-1.4-3.9-2.9-5.8-4.2c-0.5-0.4,0-1.2,0.5-0.8
				c6.9,4.9,13.5,10.2,19.9,15.7c1.8,1.6,3.6,3.2,5.4,4.8C250.1-286.3,249.4-285.6,248.9-286L248.9-286z"/>
			<path class="st2" d="M279.1-301.5c-4.4,0.3-8.8,1.2-12.8,2.8c-4,1.6-7.7,3.9-10.9,6.9c-1.8,1.7-3.3,3.6-4.6,5.7
				c-0.2,0.3-0.6,0-0.4-0.2c2.3-3.7,5.4-6.9,9.1-9.3c3.7-2.5,7.8-4.2,12.1-5.2c2.5-0.6,5-1,7.5-1.1
				C279.4-302,279.4-301.5,279.1-301.5L279.1-301.5z"/>
			<path class="st2" d="M278.5-298.4c-3.9,0.7-7.9,1.6-11.7,2.9c-3.7,1.3-7.3,3.1-10.5,5.5c-1.8,1.4-3.4,3-4.8,4.7
				c-0.2,0.2-0.5-0.1-0.3-0.3c2.5-3.2,5.6-5.7,9.1-7.6c3.6-1.9,7.4-3.3,11.3-4.3c2.2-0.6,4.4-1,6.7-1.4
				C278.7-299,278.8-298.5,278.5-298.4L278.5-298.4z"/>
			<path class="st2" d="M278.1-296.4c-3.1,0.6-6.2,1.5-9.2,2.6c-3.6,1.3-7.1,2.9-10.5,4.9c-2.1,1.2-4.1,2.5-6,4
				c-0.3,0.2-0.5-0.2-0.3-0.4c3.3-2.5,6.9-4.6,10.7-6.4c3.3-1.5,6.6-2.8,10.1-3.8c1.6-0.5,3.3-0.9,5-1.2
				C278.3-296.9,278.4-296.4,278.1-296.4L278.1-296.4z"/>
			<path class="st2" d="M248.3-284.9c-4.7-1.3-9.6-1.4-14.4-0.7c-4.8,0.8-9.5,2.5-13.7,5.1c-2.4,1.4-4.6,3.1-6.5,5.1
				c-0.2,0.2-0.6-0.1-0.3-0.3c3.5-3.5,7.8-6.2,12.4-8.1c4.6-1.8,9.6-2.8,14.5-2.7c2.7,0,5.5,0.4,8.1,1.1
				C248.7-285.3,248.6-284.8,248.3-284.9L248.3-284.9z"/>
			<path class="st2" d="M212.2-277.6c2.2,2.2,3.2,5.5,2.7,8.6c-0.1,0.3-0.5,0.2-0.5-0.1c0.5-2.9-0.5-6-2.6-8.1
				C211.6-277.5,212-277.8,212.2-277.6L212.2-277.6z"/>
			<path class="st2" d="M247.3-283.9c-4.4-0.3-8.8,0.4-13.1,1.6c-4.6,1.3-9,3.1-13.1,5.4c-2.2,1.2-4.3,2.5-6.3,4
				c-0.3,0.2-0.5-0.2-0.3-0.4c3.7-2.7,7.8-5,12-6.8c4.3-1.9,8.9-3.3,13.5-4c2.4-0.4,4.8-0.5,7.2-0.3
				C247.6-284.3,247.6-283.8,247.3-283.9L247.3-283.9z"/>
			<path class="st2" d="M247.5-282.9c-4.5,0.1-9,1.2-13.2,2.8c-4.4,1.6-8.6,3.7-12.6,5.9c-2.2,1.2-4.4,2.5-6.6,3.8
				c-0.3,0.2-0.5-0.3-0.3-0.4c4-2.4,8-4.7,12.2-6.7c4.2-2,8.5-3.8,13-4.9c2.5-0.6,5-0.9,7.5-1C247.8-283.4,247.8-282.9,247.5-282.9
				L247.5-282.9z"/>
			<path class="st2" d="M214.4-270.2c-3.6-3.4-7.3-6.6-11-9.7c-3.8-3.1-7.7-6.2-11.7-9.1c-2.2-1.6-4.5-3.2-6.8-4.8
				c-0.3-0.2,0-0.6,0.2-0.4c4.1,2.8,8.1,5.7,12,8.7c3.9,3,7.8,6.2,11.5,9.4c2.1,1.8,4.1,3.7,6.1,5.6
				C214.9-270.3,214.6-269.9,214.4-270.2L214.4-270.2z"/>
			<path class="st2" d="M214-273c-1-0.8-2.1-1.7-3.1-2.5c-1.9-1.5-3.8-3.1-5.8-4.6c-2.4-1.9-4.7-3.7-7.1-5.5
				c-2.4-1.8-4.7-3.7-7.1-5.5c-1.9-1.5-3.8-2.9-5.8-4.3c-0.2-0.1-0.4-0.3-0.6-0.4c-0.3-0.2,0-0.6,0.2-0.4c1.9,1.3,3.7,2.7,5.5,4.1
				c2.3,1.8,4.7,3.6,7,5.4c2.4,1.9,4.8,3.8,7.2,5.6c2,1.6,4,3.2,6,4.8c1.2,0.9,2.3,1.9,3.5,2.8c0.1,0.1,0.1,0.1,0.2,0.2
				C214.6-273.2,214.3-272.8,214-273L214-273z"/>
			<path class="st2" d="M282.2-291.9c-1.7,0.4-3.3,0.9-4.9,1.4c-2.2,0.7-4.5,1.4-6.7,2.1c-2.3,0.8-4.7,1.5-7,2.3
				c-2,0.6-3.9,1.3-5.9,1.9c-1.1,0.4-2.2,0.7-3.3,1.1c-0.1,0-0.1,0-0.2,0c-0.3,0.1-0.4-0.4-0.1-0.5c1-0.3,1.9-0.6,2.9-0.9
				c1.9-0.6,3.8-1.2,5.7-1.9c2.3-0.8,4.6-1.5,7-2.3c2.3-0.7,4.6-1.5,6.8-2.2c1.7-0.5,3.5-1.1,5.2-1.5c0.2,0,0.3-0.1,0.5-0.1
				C282.4-292.4,282.5-291.9,282.2-291.9L282.2-291.9z"/>
			<path class="st2" d="M253.8-283.3c0.3,0.9-0.5,1.6-1.2,2.1c-0.9,0.6-2.1,0.9-3.2,0.8c-0.6-0.1-1.2-0.3-1.7-0.7
				c-0.2-0.2,0.1-0.6,0.3-0.3c0.9,0.8,2.4,0.6,3.4,0.2c0.7-0.2,2.1-1,1.8-1.9C253.2-283.4,253.7-283.6,253.8-283.3L253.8-283.3z"/>
			<path class="st2" d="M247.9-281.1c-4.3,2.1-8.6,4.1-12.8,6.2c-4.2,2-8.5,4.1-12.7,6.2c-2.4,1.2-4.7,2.4-7.1,3.6
				c-0.3,0.1-0.5-0.3-0.3-0.4c4.2-2.2,8.4-4.2,12.6-6.3c4.3-2.1,8.5-4.1,12.8-6.1c2.4-1.2,4.8-2.3,7.2-3.5
				C247.9-281.7,248.2-281.2,247.9-281.1L247.9-281.1z"/>
			<path class="st2" d="M214.4-265.1c-1.7-1.3-3.4-2.7-5-4.1c-2.6-2.1-5.2-4.3-7.8-6.5c-2.9-2.4-5.7-4.8-8.6-7.1
				c-2.5-2.1-5-4.1-7.5-6.2c-0.9-0.7-1.8-1.5-2.7-2.2c-0.3-0.3-0.7-0.5-1-0.8c-0.1-0.1-0.3-0.2-0.4-0.3c-0.1,0-0.1-0.1-0.2-0.1
				c0,0-0.2-0.1-0.1-0.1c-0.1-0.1-0.2-0.1-0.2-0.2c-0.3-0.2,0-0.6,0.2-0.4c1.4,1,2.7,2.1,4,3.2c2.4,2,4.8,4,7.2,6
				c2.9,2.4,5.7,4.8,8.6,7.1c2.7,2.2,5.3,4.4,8,6.6c1.8,1.5,3.6,3,5.5,4.5c0.1,0.1,0.3,0.2,0.4,0.3C215-265.3,214.6-265,214.4-265.1
				L214.4-265.1z"/>
		</g>
		<g>
			<g>
				<path class="st2" d="M390.3-111.2c0-0.4,0.3-0.7,0.7-0.8c0.5-0.1,0.9,0.2,1.3,0.5c0.7,0.6,1.5,1.2,2.2,1.8
					c1.4,1.2,2.8,2.4,4.3,3.6c1.4,1.2,2.9,2.5,4.3,3.8c1.2,1.1,2.6,2.2,3.4,3.6c0.9,1.6,0.9,3.6,0,5.2c-0.2,0.4,0.4,0.8,0.6,0.4
					c0.9-1.6,1-3.4,0.3-5.2c-0.7-1.8-2.1-3-3.5-4.3c-3.3-3-6.6-5.9-10.1-8.7c-0.7-0.6-1.6-1.6-2.6-1.6c-0.9,0-1.6,0.7-1.6,1.6
					C389.5-110.8,390.2-110.7,390.3-111.2L390.3-111.2z"/>
				<path class="st2" d="M383.5-110.4c2.1,0,4.2-0.2,6.3-0.1c0.5,0,0.5-0.7,0-0.8c-2.1-0.1-4.2,0.1-6.3,0.1
					C383-111.1,383-110.3,383.5-110.4L383.5-110.4z"/>
				<path class="st2" d="M389.8-110.5c2.8,2.4,5.5,4.9,8.2,7.4c1.3,1.2,2.7,2.5,4,3.8c0.5,0.5,1.4,1.1,1.7,1.9
					c0.2,0.7-0.1,1.4-0.6,1.8c-1.4,1.1-3.3,0.2-4.5-0.6c-1.4-1-2.7-2.1-4-3.3c-2.7-2.5-5.3-5.1-8-7.7c-1.4-1.3-2.8-2.7-3.9-4.3
					c-0.4-0.6-0.8-1.3-1.5-1.5c-0.6-0.2-1.3,0.1-1.7,0.6c-0.3,0.4,0.2,0.9,0.5,0.5c0.2-0.2,0.5-0.4,0.8-0.4c0.4,0,0.7,0.4,0.9,0.7
					c0.5,0.7,0.9,1.3,1.4,2c1.2,1.4,2.5,2.6,3.8,3.8c2.7,2.6,5.4,5.4,8.2,7.9c1.3,1.1,2.6,2.3,4.2,3c1.3,0.6,3,0.8,4.2-0.2
					c1.1-0.9,1.3-2.4,0.3-3.5c-0.6-0.7-1.2-1.2-1.9-1.8c-0.7-0.7-1.4-1.3-2.1-2c-3.1-2.9-6.3-5.8-9.5-8.6
					C390-111.4,389.4-110.8,389.8-110.5L389.8-110.5z"/>
				<path class="st2" d="M379.1-111.9c-5,8.1-9.7,16.4-14,24.8c-0.5,1-1,2.1-0.9,3.2c0,1.1,0.4,2.1,1.1,2.9c0.3,0.4,0.8-0.2,0.5-0.5
					c-0.6-0.8-1-1.7-0.9-2.7c0.1-1.1,0.6-2.1,1.1-3c1-2,2.1-4,3.1-6c2.1-4,4.4-7.9,6.6-11.8c1.3-2.2,2.6-4.4,3.9-6.5
					C380-112,379.4-112.3,379.1-111.9L379.1-111.9z"/>
				<path class="st2" d="M365.5-80.7c3.2,3.6,6.6,7.1,10.1,10.4c3.1,2.9,6.5,6,11,6.3c2,0.1,4-0.4,5.3-2c0.3-0.4-0.4-0.8-0.6-0.4
					c-1.1,1.4-2.9,1.8-4.6,1.7c-1.9-0.1-3.7-0.9-5.3-1.9c-1.9-1.2-3.6-2.8-5.2-4.3c-1.6-1.5-3.2-3.1-4.8-4.7
					c-1.8-1.8-3.5-3.7-5.2-5.6C365.7-81.6,365.2-81.1,365.5-80.7L365.5-80.7z"/>
				<path class="st2" d="M406.1-93c-3.7,6.8-7.5,13.5-11.2,20.3c-1.1,1.9-2.1,3.8-3.1,5.7c-0.2,0.4,0.4,0.8,0.6,0.4
					c3.7-6.8,7.5-13.5,11.2-20.3c1.1-1.9,2.1-3.8,3.1-5.7C407-93.1,406.3-93.5,406.1-93L406.1-93z"/>
				<path class="st2" d="M395.3-93.4c-3.4,6.1-6.8,12.2-10.2,18.2c-1,1.7-1.9,3.4-2.9,5.2c-0.2,0.4,0.4,0.8,0.6,0.4
					c3.4-6.1,6.8-12.2,10.2-18.2c1-1.7,1.9-3.4,2.9-5.2C396.2-93.4,395.5-93.8,395.3-93.4L395.3-93.4z"/>
				<path class="st2" d="M406.2-121.9c-0.1-0.5-0.1-1.2,0.4-1.5c0.4-0.2,1,0.1,1.4,0.3c1.5,0.9,2.9,1.9,4.4,2.9
					c2.8,2,5.6,4.2,8.1,6.6c1.3,1.2,3,2.4,3.3,4.2c0.1,0.5,0.8,0.3,0.7-0.2c-0.3-1.7-1.8-3-3-4.1c-1.4-1.3-2.9-2.6-4.5-3.9
					c-1.5-1.2-3.1-2.4-4.7-3.5c-0.8-0.6-1.6-1.1-2.5-1.7c-0.7-0.4-1.4-1-2.1-1.2c-0.5-0.2-1.1-0.2-1.6,0.1c-0.6,0.5-0.7,1.3-0.6,2
					C405.5-121.5,406.2-121.5,406.2-121.9L406.2-121.9z"/>
				<path class="st2" d="M423.7-108.7c-0.4,10.9-0.9,21.8-1.5,32.7c-0.2,3.1-0.4,6.1-0.6,9.2c0,0.5,0.7,0.5,0.8,0
					c0.7-10.9,1.2-21.8,1.6-32.7c0.1-3.1,0.2-6.2,0.4-9.2C424.4-109.2,423.7-109.2,423.7-108.7L423.7-108.7z"/>
				<path class="st2" d="M421.6-66.7c-1.2,3-4.8,3.7-7.7,3.2c-4.1-0.7-7.1-3.8-10-6.6c-2.1-2-4.1-4-6.2-6c-0.3-0.3-0.9,0.2-0.5,0.5
					c2,1.9,3.9,3.8,5.9,5.7c1.8,1.7,3.5,3.5,5.6,4.9c2.8,1.9,6.6,3,9.9,1.8c1.7-0.6,3-1.8,3.7-3.4C422.5-66.9,421.8-67.1,421.6-66.7
					L421.6-66.7z"/>
				<path class="st2" d="M406.5-121.7c3,2.5,6.3,4.6,9.4,7.1c0.8,0.6,1.6,1.3,2.4,1.9c0.7,0.6,1.5,1.2,2,2.1c0.5,1-0.2,1.8-1.1,2.1
					c-0.9,0.3-1.9,0.3-2.8,0.1c-1.9-0.5-3.6-1.9-5.2-3c-1.7-1.2-3.5-2.3-5.2-3.5c-1.8-1.2-3.5-2.5-5.3-3.7c-0.8-0.6-1.7-1.2-2.5-1.8
					c-0.8-0.6-1.5-1.3-2.4-1.7c-0.7-0.3-1.5-0.2-2,0.4c-0.5,0.6-0.6,1.4-0.7,2.1c-0.2,2.4-0.4,4.8-0.7,7.2c0,0.5,0.7,0.5,0.8,0
					c0.2-2.2,0.4-4.3,0.6-6.5c0.1-0.8,0.1-1.7,0.6-2.4c0.6-0.9,1.6,0,2.2,0.5c3.5,2.5,7,5,10.5,7.5c1.8,1.2,3.5,2.4,5.3,3.6
					c1.6,1,3.2,2.1,5.2,2.2c1.5,0.1,3.7-0.7,3.6-2.5c0-0.8-0.6-1.5-1.2-2.1c-0.7-0.7-1.5-1.3-2.2-1.9c-3.5-2.9-7.3-5.3-10.8-8.2
					C406.7-122.5,406.1-122,406.5-121.7L406.5-121.7z"/>
				<path class="st2" d="M406.5-122.2c-3.2,0.4-6.4,0.6-9.6,0.8c-0.5,0-0.5,0.8,0,0.8c3.2-0.2,6.4-0.4,9.6-0.8
					C407-121.6,407-122.3,406.5-122.2L406.5-122.2z"/>
				<path class="st2" d="M411.2-107.8c-1.2,10.6-1.8,21.3-2.4,32c-0.2,3-0.3,6-0.4,9c0,0.5,0.7,0.5,0.8,0c0.5-10.8,1-21.5,2-32.3
					c0.2-2.9,0.5-5.9,0.8-8.8C412.1-108.2,411.3-108.2,411.2-107.8L411.2-107.8z"/>
				<path class="st2" d="M421.1-114c0.1-0.5,0.5-0.7,0.9-0.9c0.4-0.1,0.6-0.1,0.9,0.1c0.4,0.2,0.8,0.5,1.1,0.8
					c1.1,0.8,2.2,1.7,3.2,2.5c2.4,1.9,4.7,3.9,7,5.9c1.2,1,2.9,2.2,3.2,3.8c0.1,0.5,0.8,0.3,0.7-0.2c-0.3-1.7-1.9-2.8-3.1-3.9
					c-1.1-1-2.3-2-3.5-3c-2.5-2.1-5-4.2-7.6-6.1c-0.4-0.3-1-0.8-1.5-0.8c-0.5,0-1.1,0.2-1.5,0.5c-0.4,0.3-0.6,0.7-0.7,1.2
					C420.2-113.5,421-113.5,421.1-114L421.1-114z"/>
				<path class="st2" d="M422.5-68.6c2.2,2,5.2,3.6,8.2,3.7c2.3,0.1,5.3-1.3,5.4-3.9c0-0.5-0.7-0.5-0.8,0c0,1.1-0.8,1.9-1.7,2.4
					c-1,0.7-2.2,0.9-3.5,0.7c-2.6-0.2-5.2-1.7-7.1-3.5C422.6-69.5,422.1-68.9,422.5-68.6L422.5-68.6z"/>
				<path class="st2" d="M436.1-68.9c0.3-2,0.4-4,0.6-6.1c0.1-2.1,0.3-4.2,0.4-6.3c0.3-4.2,0.5-8.5,0.8-12.7
					c0.2-2.4,0.3-4.8,0.5-7.2c0-0.5-0.7-0.5-0.8,0c-0.5,8.4-1.1,16.7-1.6,25.1c-0.1,2.3-0.2,4.7-0.6,7
					C435.3-68.7,436-68.4,436.1-68.9L436.1-68.9z"/>
				<path class="st2" d="M424-103.5c1.1,0.9,2.1,1.8,3.3,2.6c1.2,0.9,2.6,1.8,4.1,2c1.7,0.2,4.6-0.7,4.6-2.8c0-0.8-0.4-1.4-0.9-1.9
					c-0.6-0.7-1.2-1.3-1.9-1.8c-1.8-1.6-3.7-3.2-5.6-4.7c-1-0.8-2.1-1.6-3.1-2.4c-0.4-0.3-0.9-0.7-1.3-1c-0.5-0.4-1.2-0.5-1.7-0.1
					c-0.4,0.3,0,0.9,0.4,0.7c0.2-0.2,0.5-0.3,0.8-0.1c0.2,0.1,0.3,0.3,0.5,0.4c0.4,0.3,0.7,0.6,1.1,0.8c0.8,0.6,1.7,1.3,2.5,1.9
					c1.7,1.4,3.5,2.8,5.2,4.2c0.7,0.6,1.4,1.2,2,1.8c0.4,0.4,0.9,0.8,1.1,1.3c1.1,1.9-1.6,3-3.1,3c-1.5,0-2.8-0.9-4-1.7
					c-1.2-0.8-2.3-1.7-3.5-2.7C424.2-104.3,423.6-103.8,424-103.5L424-103.5z"/>
				<path class="st2" d="M426.5-69.1c0.4-7.6,0.7-15.2,1-22.9c0.1-2.2,0.2-4.4,0.2-6.6c0-0.5-0.7-0.5-0.8,0
					c-0.3,7.6-0.6,15.2-1,22.9c-0.1,2.2-0.2,4.4-0.3,6.6C425.7-68.6,426.5-68.6,426.5-69.1L426.5-69.1z"/>
			</g>
			<path class="st2" d="M384.4-110.4c1.9,2.2,4,4.3,6,6.3c2.1,2.1,4.3,4.1,6.5,6c1.2,1.1,2.4,2.2,3.7,3.3c0.2,0.2,0.5-0.1,0.3-0.3
				c-2.2-1.9-4.4-3.9-6.5-5.9c-2.2-2-4.3-4.1-6.4-6.2c-1.1-1.2-2.2-2.4-3.3-3.6C384.5-110.9,384.2-110.6,384.4-110.4L384.4-110.4z"
				/>
			<path class="st2" d="M385.6-110.7c1.9,2.2,4,4.3,6.1,6.3c2.1,2,4.3,4,6.5,6c1.2,1.1,2.5,2.2,3.7,3.3c0.2,0.2,0.5-0.1,0.3-0.3
				c-2.2-1.9-4.4-3.9-6.6-5.9c-2.2-2-4.3-4-6.4-6.1c-1.1-1.2-2.3-2.4-3.3-3.6C385.7-111.2,385.5-110.9,385.6-110.7L385.6-110.7z"/>
			<path class="st2" d="M387.5-110.6c3.6,4.2,7.7,7.9,11.9,11.6c1.2,1.1,2.4,2.1,3.6,3.2c0.2,0.2,0.5-0.1,0.3-0.3
				c-4.1-3.7-8.4-7.3-12.2-11.3c-1.1-1.1-2.2-2.3-3.3-3.5C387.6-111.1,387.3-110.8,387.5-110.6L387.5-110.6z"/>
			<path class="st2" d="M389-110.6c1.7,2,3.6,3.9,5.5,5.7c1.8,1.7,3.7,3.3,5.6,5c1.2,1,2.3,2,3.5,3.1c0.2,0.2,0.5-0.1,0.3-0.3
				c-3.8-3.4-7.8-6.7-11.4-10.3c-1.1-1.1-2.1-2.2-3.1-3.4C389.2-111,388.9-110.8,389-110.6L389-110.6z"/>
			<path class="st2" d="M398.7-121.2c4.8,3.6,9.6,7.1,14.5,10.5c1.3,0.9,2.6,1.9,4,2.8c0.2,0.1,0.4-0.2,0.2-0.3
				c-4.8-3.4-9.6-6.7-14.3-10.2c-1.4-1-2.8-2.1-4.2-3.1C398.7-121.6,398.5-121.3,398.7-121.2L398.7-121.2z"/>
			<path class="st2" d="M403.6-121.2c4.2,3.2,8.3,6.6,12.6,9.8c1.2,0.9,2.4,1.8,3.7,2.7c0.2,0.1,0.4-0.2,0.2-0.3
				c-4.2-3-8.3-6.3-12.4-9.4c-1.3-1-2.6-2-3.9-3C403.6-121.7,403.4-121.4,403.6-121.2L403.6-121.2z"/>
			<path class="st2" d="M401.6-120.9c4.4,3.3,8.8,6.7,13.2,9.9c1.3,0.9,2.5,1.8,3.8,2.7c0.2,0.1,0.4-0.2,0.2-0.3
				c-4.4-3.1-8.7-6.4-13-9.6c-1.3-1-2.7-2-4-3C401.6-121.3,401.4-121,401.6-120.9L401.6-120.9z"/>
			<path class="st2" d="M405.1-121.4c3.9,2.9,7.7,6,11.7,8.9c1.2,0.9,2.4,1.7,3.6,2.6c0.2,0.1,0.4-0.2,0.2-0.3
				c-3.9-2.7-7.7-5.7-11.5-8.6c-1.3-1-2.5-1.9-3.8-2.9C405.1-121.9,404.9-121.6,405.1-121.4L405.1-121.4z"/>
			<path class="st2" d="M423.8-105.4c2.7,2.2,5.7,4,8.4,6.1c0.2,0.1,0.4-0.2,0.2-0.3c-1.4-1.1-2.9-2.1-4.4-3.2
				c-1.3-0.9-2.7-1.8-3.9-2.9C423.9-105.8,423.7-105.5,423.8-105.4L423.8-105.4z"/>
			<path class="st2" d="M422.5-112.1c3.3,2.7,6.7,5.4,10,8.1c1,0.8,1.9,1.6,2.9,2.4c0.2,0.2,0.5-0.1,0.3-0.3
				c-3.3-2.7-6.6-5.4-9.9-8.1c-1-0.8-1.9-1.6-2.9-2.4C422.6-112.5,422.3-112.3,422.5-112.1L422.5-112.1z"/>
			<path class="st2" d="M424.4-108.4c2.5,2.1,5.2,4,7.8,6.1c0.8,0.6,1.5,1.2,2.3,1.9c0.2,0.2,0.5-0.1,0.3-0.3
				c-2.5-2.1-5.2-4-7.8-6.1c-0.8-0.6-1.5-1.2-2.3-1.9C424.5-108.8,424.2-108.5,424.4-108.4L424.4-108.4z"/>
			<path class="st2" d="M424.3-106.7c1.3,1,2.6,1.9,3.9,2.9c1.4,1,2.8,2,4.2,3c0.4,0.3,0.8,0.5,1.1,0.9c0.2,0.2,0.4-0.1,0.3-0.3
				c-0.3-0.3-0.6-0.5-1-0.7c-0.6-0.4-1.2-0.9-1.8-1.3c-1.5-1.1-3-2.1-4.5-3.2c-0.7-0.5-1.3-1-1.9-1.5
				C424.4-107.1,424.1-106.9,424.3-106.7L424.3-106.7z"/>
		</g>
		<g>
			<path class="st2" d="M148.9-86.1c4.7-4.1,9.4-8.2,14-12.5c2.3-2.1,4.5-4.2,6.8-6.3c0.5-0.5,1.1-1,1.6-1.5
				c0.6-0.5,1.3-1.1,1.7-1.8c0.8-1.2-0.6-2.4-1.3-3.2c-4.4-4.5-9.1-8.8-13.8-12.9c-2.4-2.1-4.9-4.1-7.4-6.1
				c-0.6-0.5-1.1-1.1-1.8-0.4c-0.5,0.5-0.9,1.1-1.3,1.7c-0.9,1.2-1.9,2.5-2.7,3.8c-3.4,5-6.4,10.2-9.7,15.2
				c-3.2,4.9-6.8,9.6-11.3,13.4c-2,1.6-4.3,3-6.9,3.3c-2.4,0.2-5-0.5-6.5-2.5c-0.5-0.6-0.7-1.3-1-2c-0.5-1.3-1-2.6-1.4-3.8
				c-3.1-8.9-6-18-8.4-27.1c-0.3-1.1-0.6-2.3-0.9-3.4c-0.1-0.6,0.8-0.9,0.9-0.3c2.3,9.5,5.2,18.9,8.4,28.1c0.8,2.4,1.7,5.1,2.7,7.4
				c0.8,1.6,2.9,2.5,4.6,2.6c2.8,0.2,5.3-1.2,7.4-2.9c4.7-3.7,8.3-8.7,11.6-13.6c3.4-5.1,6.4-10.4,9.9-15.5c0.9-1.2,1.7-2.4,2.6-3.6
				c0.6-0.8,1.4-2.3,2.7-2.2c0.6,0.1,1,0.5,1.5,0.8c0.6,0.5,1.3,1,1.9,1.5c1.3,1,2.5,2.1,3.7,3.1c4.9,4.2,9.7,8.6,14.3,13.1
				c1.4,1.4,4.5,3.7,2.9,6c-0.4,0.6-0.9,1-1.4,1.5c-0.6,0.6-1.2,1.1-1.8,1.7c-1.1,1.1-2.3,2.2-3.4,3.2c-4.6,4.3-9.3,8.6-14.1,12.7
				c-1.1,1-2.3,2-3.4,3C149.1-85.1,148.4-85.7,148.9-86.1L148.9-86.1z"/>
			<path class="st2" d="M149.4-85.2c-0.6,2.3-2.2,4.1-4.4,5c-2.4,1.1-5.1,0.9-7.5,0c-1.5-0.5-2.9-1.2-4.3-1.9c-1.5-0.7-3-1.3-4.6-2
				c-3-1.3-6-2.6-9-4c-1.4-0.7-2.8-1.3-4.2-2c-1.3-0.6-2.6-1.3-3.8-2.1c-1.2-0.8-2.2-1.7-3.1-2.8c-0.9-1.1-1.3-2.4-1.7-3.7
				c-2-6.3-4-12.6-6-19c-1.1-3.5-2.3-7.1-3.4-10.6c-0.3-0.8-0.6-1.7-0.8-2.6c-0.1-0.5-0.3-1.3,0.1-1.8c0.5-0.8,2-0.9,2.8-0.6
				c0.6,0.2,0.1,1.1-0.4,0.8c-0.4-0.1-0.9,0-1.2,0.1c-0.6,0.2-0.4,0.9-0.2,1.4c0.4,1.5,0.9,2.9,1.4,4.3c0.9,2.9,1.8,5.7,2.7,8.6
				c1.8,5.8,3.7,11.6,5.5,17.4c0.4,1.3,0.8,2.6,1.4,3.9c0.6,1.2,1.5,2.2,2.6,3c2.1,1.7,4.8,2.7,7.2,3.9c5.4,2.6,11,4.9,16.5,7.3
				c2.7,1.2,5.5,2.5,8.5,1.7c2.5-0.6,4.5-2.3,5.2-4.8C148.7-86,149.6-85.8,149.4-85.2L149.4-85.2z"/>
			<path class="st2" d="M128.6-96.9c5.5,2.9,11,5.8,16.4,8.7c1.2,0.7,2.5,1.3,3.7,2c0.5,0.3,0.1,1.1-0.4,0.8
				c-5.2-2.8-10.4-5.5-15.7-8.3c-1.5-0.8-3-1.6-4.5-2.3C127.7-96.3,128.1-97.1,128.6-96.9L128.6-96.9z"/>
			<path class="st2" d="M147.4-130.7c-1.6-1.1-3-2.4-4.7-3.4c-0.5-0.3-1.1-0.7-1.6-0.9c-0.4-0.1-0.9-0.2-1.3-0.3
				c-1.1-0.2-2.2-0.2-3.3-0.1c-0.6,0.1-1.2,0.2-1.5,0.8c-0.8,2-1.5,4.1-2.3,6.1c-3,7.9-6,15.9-9,23.8c-1.3,3.3-2.5,6.6-3.8,9.9
				c-0.2,0.6-1.1,0.1-0.8-0.4c1.2-2.9,2.3-5.9,3.4-8.8c1.6-4.2,3.2-8.4,4.8-12.7c1.5-3.9,3-7.9,4.4-11.8c0.8-2.1,1.6-4.3,2.4-6.5
				c0.6-1.6,3.2-1.4,4.5-1.3c0.9,0.1,1.9,0.2,2.8,0.5c1.5,0.6,2.9,1.8,4.2,2.8c0.8,0.6,1.5,1.2,2.3,1.7
				C148.5-131,147.9-130.3,147.4-130.7L147.4-130.7z"/>
			<path class="st2" d="M133.9-134.5c-0.7-1-1.5-1.7-2.7-2c-1.2-0.3-2.4-0.4-3.5-0.4c-0.6,0-2-0.1-2.4,0.2c-0.3,0.2-0.4,0.8-0.5,1.1
				c-0.1,0.4-0.2,0.9-0.3,1.3c-0.2,0.9-0.3,1.9-0.4,2.9c-0.5,4.1-1.3,8.2-2.1,12.2c-0.8,4-1.6,8-2.5,12c-1,4.3-2,8.6-2.8,13
				c-0.1,0.6-1,0.4-0.9-0.2c0.7-4.1,1.7-8.2,2.6-12.2c1-4.3,1.9-8.5,2.7-12.8c0.8-4.3,1.6-8.6,2.2-13c0.1-1,0.3-2,0.5-2.9
				c0.2-0.7,0.3-1.6,0.9-2.1c0.7-0.5,1.9-0.5,2.7-0.5c1.4,0,2.8,0.1,4.2,0.5c1.4,0.3,2.4,1.2,3.3,2.4
				C135.1-134.5,134.3-134,133.9-134.5L133.9-134.5z"/>
			<path class="st2" d="M123.3-134.3c-1-0.8-2.1-1.7-3.3-2c-1-0.2-2,0.5-3,0.7c-0.6,0.2-0.9-0.7-0.3-0.9c1.1-0.3,2.3-1,3.5-0.7
				c1.4,0.3,2.7,1.3,3.8,2.3C124.4-134.6,123.7-133.9,123.3-134.3L123.3-134.3z"/>
			<path class="st2" d="M115.9-133.6c-0.1-0.5-0.2-1-0.4-1.4c-0.1-0.1-0.2-0.3-0.2-0.4c0,0-0.1-0.1-0.1-0.1c-0.1-0.1,0,0,0.1,0
				c0,0-0.3,0-0.1,0c-0.1,0-0.2,0-0.4,0c-0.3,0-0.6,0-0.9,0c-1.4,0.1-2.9,0.3-4.3,0.5c-0.3,0.1-0.5,0-0.6-0.3
				c-0.1-0.2,0.1-0.5,0.3-0.6c1.2-0.2,2.5-0.4,3.8-0.5c0.6-0.1,1.2-0.1,1.7-0.1c0.4,0,0.8,0,1.1,0.4c0.6,0.6,0.8,1.6,0.9,2.4
				c0,0.3-0.2,0.5-0.5,0.5C116.1-133.2,116-133.4,115.9-133.6L115.9-133.6z"/>
			<path class="st2" d="M109.2-135c-0.5-0.3-0.1-1.1,0.4-0.8C110.2-135.5,109.8-134.7,109.2-135L109.2-135z"/>
			<path class="st2" d="M108.4-134.3c-0.4-0.1-0.8-0.3-1.2-0.4c-0.2-0.1-0.3-0.1-0.5-0.1c-0.2,0-0.5,0.2-0.7,0.3
				c-1.1,0.5-2.1,0.9-3.2,1.2c-0.6,0.2-0.9-0.7-0.3-0.9c1.2-0.4,2.3-0.8,3.4-1.3c0.5-0.2,0.9-0.3,1.4-0.1c0.4,0.1,0.8,0.3,1.2,0.4
				C109.2-135.1,109-134.1,108.4-134.3L108.4-134.3z"/>
			<path class="st2" d="M102.8-131.7c-0.2-0.2-0.4-0.3-0.7-0.5c-0.1,0-0.1-0.1-0.2-0.1c0,0-0.1,0-0.1-0.1c0,0-0.1-0.1,0,0
				c0.1,0,0,0,0,0c0,0-0.1,0-0.1-0.1c-0.1,0-0.1-0.1-0.2-0.1c0,0-0.1,0-0.1,0c-0.1,0,0.1,0,0,0c0,0,0,0-0.1,0c0,0,0.1,0,0,0
				c-0.1,0-0.1,0-0.2,0c-0.1,0-0.2,0.1-0.3,0.1c-0.4,0.2-0.8,0.4-1.2,0.6c-0.2,0.1-0.5-0.1-0.6-0.3c-0.1-0.3,0.1-0.5,0.3-0.6
				c0.4-0.2,0.9-0.4,1.3-0.6c0.4-0.2,0.7-0.2,1.1-0.1c0.3,0.1,0.6,0.3,0.8,0.5c0.1,0.1,0.2,0.2,0.4,0.3c0.1,0,0.1,0.1,0.2,0.1
				c0,0,0.2,0.1,0,0c0.2,0.1,0.3,0.4,0.2,0.6C103.3-131.7,103-131.6,102.8-131.7L102.8-131.7z"/>
			<path class="st2" d="M103.2-133.7c3.2,9.8,5.9,19.8,8.1,29.9c0.6,2.8,1.2,5.7,1.7,8.6c0.1,0.6-0.8,0.9-0.9,0.3
				c-1.9-10.2-4.3-20.2-7.3-30.2c-0.8-2.8-1.7-5.6-2.6-8.3C102.1-134,103-134.3,103.2-133.7L103.2-133.7z"/>
			<path class="st2" d="M109-134.7c2.1,10.3,3.5,20.8,4.1,31.3c0.2,3,0.3,5.9,0.4,8.9c0,0.6-0.9,0.7-1,0
				c-0.3-10.4-1.2-20.8-2.9-31.1c-0.5-3-1-5.9-1.6-8.8C108-135,108.9-135.3,109-134.7L109-134.7z"/>
			<path class="st2" d="M109.8-135.3c0.3,3.1,0.6,6.3,0.8,9.4c0,0.6-0.9,0.7-1,0c-0.3-3.1-0.6-6.3-0.8-9.4
				C108.8-135.9,109.8-135.9,109.8-135.3L109.8-135.3z"/>
			<path class="st2" d="M117.1-136c0,10.8-0.7,21.6-1.7,32.3c-0.3,3-0.6,6-0.9,8.9c-0.1,0.6-1,0.4-0.9-0.2
				c1.1-10.7,2.1-21.3,2.5-32.1c0.1-3,0.2-6,0.2-9C116.1-136.6,117.1-136.6,117.1-136L117.1-136z"/>
			<path class="st2" d="M141.6-133.9c-4.4,9.9-9.2,19.6-14.3,29.2c-1.5,2.7-2.9,5.4-4.4,8.1c-0.3,0.5-1.1,0.1-0.8-0.4
				c5.3-9.5,10.3-19.1,14.9-28.9c1.3-2.8,2.6-5.6,3.9-8.4C141-134.9,141.8-134.5,141.6-133.9L141.6-133.9z"/>
			<path class="st2" d="M138.6-135.6c-1,2.3-2,4.5-3,6.8c-1.2,2.7-2.4,5.5-3.5,8.2c-1.2,2.9-2.5,5.8-3.7,8.6
				c-1.2,2.8-2.4,5.5-3.6,8.3c-1,2.3-2.1,4.7-3.1,7c-0.1,0.2-0.2,0.5-0.3,0.7c-0.1,0.3-0.6,0.1-0.4-0.2c1-2.3,2.1-4.5,3-6.8
				c1.2-2.7,2.4-5.5,3.5-8.2c1.2-2.9,2.5-5.8,3.7-8.6c1.2-2.8,2.4-5.5,3.6-8.3c1-2.4,2-4.7,3.1-7c0.1-0.3,0.2-0.5,0.3-0.8
				C138.3-136.1,138.7-135.9,138.6-135.6L138.6-135.6z"/>
			<path class="st2" d="M132.3-136.3c-0.8,2.4-1.6,4.8-2.4,7.1c-1,2.8-1.9,5.7-2.9,8.5c-1,3-2,6-3,9c-1,2.9-1.9,5.8-2.9,8.7
				c-0.8,2.5-1.6,5-2.3,7.5c-0.1,0.3-0.2,0.5-0.2,0.8c-0.1,0.3-0.6,0.2-0.5-0.1c0.7-2.4,1.5-4.8,2.3-7.3c0.9-2.9,1.9-5.7,2.8-8.6
				c1-3,2-6,3-9c1-2.9,1.9-5.7,2.9-8.6c0.8-2.4,1.6-4.9,2.4-7.3c0.1-0.3,0.2-0.5,0.3-0.8C131.9-136.6,132.4-136.5,132.3-136.3
				L132.3-136.3z"/>
			<path class="st2" d="M129.6-137.2c-0.8,2.4-1.5,4.8-2.2,7.2c-0.9,2.9-1.7,5.9-2.5,8.8c-0.9,3.1-1.7,6.2-2.6,9.3
				c-0.8,3-1.6,6-2.5,9c-0.7,2.5-1.4,5.1-2.1,7.6c-0.1,0.3-0.2,0.5-0.2,0.8c-0.1,0.3-0.6,0.2-0.5-0.1c0.7-2.4,1.4-4.9,2.1-7.3
				c0.8-3,1.6-5.9,2.4-8.9c0.8-3.1,1.7-6.2,2.6-9.3c0.8-3,1.7-6,2.5-8.9c0.7-2.5,1.5-5,2.2-7.5c0.1-0.3,0.2-0.5,0.3-0.8
				C129.2-137.6,129.7-137.5,129.6-137.2L129.6-137.2z"/>
			<path class="st2" d="M127.1-137.3c-0.7,2.4-1.3,4.8-1.9,7.3c-0.7,2.9-1.4,5.8-2,8.7c-0.7,3.1-1.4,6.2-2.1,9.2
				c-0.7,3-1.3,5.9-2,8.9c-0.6,2.5-1.2,5.1-1.8,7.6c-0.1,0.3-0.1,0.5-0.2,0.8c-0.1,0.3-0.5,0.2-0.5-0.1c0.6-2.5,1.2-4.9,1.8-7.4
				c0.7-2.9,1.3-5.9,2-8.8c0.7-3.1,1.4-6.2,2.1-9.2c0.7-3,1.3-5.9,2-8.9c0.6-2.5,1.2-5,1.9-7.5c0.1-0.3,0.1-0.5,0.2-0.8
				C126.7-137.7,127.2-137.6,127.1-137.3L127.1-137.3z"/>
			<path class="st2" d="M120.2-136.4c-0.7,5.3-1.3,10.6-1.9,15.9c-0.7,5.9-1.4,11.9-2.1,17.9c-0.3,2.8-0.6,5.6-0.9,8.5
				c0,0.3-0.5,0.2-0.5-0.1c0.5-5.4,1.1-10.7,1.7-16.1c0.7-5.9,1.4-11.9,2.1-17.8c0.3-2.8,0.7-5.6,1-8.3
				C119.8-136.8,120.2-136.7,120.2-136.4L120.2-136.4z"/>
			<path class="st2" d="M118.5-136.3c-0.2,2.5-0.4,4.9-0.6,7.4c-0.2,2.9-0.5,5.8-0.7,8.7c-0.3,3.1-0.5,6.1-0.8,9.2
				c-0.3,2.9-0.6,5.8-0.9,8.7c-0.3,2.5-0.5,4.9-0.9,7.4c0,0.3-0.1,0.5-0.1,0.8c0,0.3-0.5,0.2-0.5-0.1c0.3-2.4,0.6-4.8,0.9-7.1
				c0.3-2.9,0.6-5.7,0.9-8.6c0.3-3,0.6-6.1,0.8-9.1c0.3-2.9,0.5-5.9,0.7-8.8c0.2-2.5,0.4-5.1,0.6-7.6c0-0.3,0-0.5,0.1-0.8
				C118-136.6,118.5-136.6,118.5-136.3L118.5-136.3z"/>
			<path class="st2" d="M114.6-136.1c-0.1,5.3-0.2,10.6-0.3,15.8c-0.1,5.7-0.2,11.5-0.3,17.2c-0.1,2.5-0.1,5.1-0.2,7.6
				c0,0.3-0.5,0.3-0.5,0c0.2-5,0.3-10,0.4-14.9c0.1-5.8,0.2-11.7,0.3-17.5c0-2.8,0.1-5.5,0.1-8.3
				C114.2-136.4,114.6-136.4,114.6-136.1L114.6-136.1z"/>
			<path class="st2" d="M112.5-135.6c0.1,5.3,0.2,10.6,0.3,15.8c0.1,5.7,0.2,11.5,0.3,17.2c0,2.5,0.1,5.1,0,7.6c0,0.3-0.5,0.3-0.5,0
				c0-5-0.1-10-0.1-14.9c-0.1-5.8-0.2-11.7-0.4-17.5c-0.1-2.8-0.1-5.5-0.2-8.3C112-135.8,112.5-135.9,112.5-135.6L112.5-135.6z"/>
			<path class="st2" d="M112-99c-0.5-4.8-1.1-9.6-1.8-14.3c-0.7-4.7-1.5-9.4-2.3-14.1c-0.4-2.4-0.8-4.7-1.3-7
				c-0.1-0.3,0.4-0.4,0.5-0.1c0.8,4.3,1.6,8.7,2.3,13.1c0.8,4.8,1.5,9.6,2.1,14.5c0.3,2.7,0.7,5.3,0.9,8C112.5-98.7,112-98.7,112-99
				L112-99z"/>
			<path class="st2" d="M111.9-95.1c-1.4-4.9-2.9-9.7-4.3-14.6c-1.4-4.9-2.9-9.7-4.3-14.6c-0.8-2.8-1.6-5.5-2.4-8.3
				c-0.1-0.3,0.4-0.4,0.5-0.1c1.4,4.9,2.9,9.7,4.3,14.6c1.4,4.9,2.9,9.7,4.3,14.6c0.8,2.8,1.6,5.5,2.4,8.3
				C112.4-94.9,112-94.8,111.9-95.1L111.9-95.1z"/>
			<path class="st2" d="M111.9-96.2c-0.6-5-1.4-9.9-2.3-14.8c-1-5.1-2.1-10.1-3.4-15.1c-0.7-2.6-1.4-5.3-2.2-7.9
				c-0.1-0.3,0.4-0.4,0.5-0.1c1.5,4.8,2.7,9.6,3.8,14.5c1.2,5,2.1,10.1,3,15.2c0.4,2.7,0.8,5.4,1.1,8.2
				C112.4-95.9,111.9-95.9,111.9-96.2L111.9-96.2z"/>
		</g>
		<g>
			<path class="st2" d="M111.7-441.6c-6.6,4.6-13,9.3-19.6,13.9c-1.6,1.1-3.3,2.2-5,3.3c-0.9,0.6-1.7,1.1-2.6,1.6
				c-0.4,0.3-1.3,0.5-1.2,1.1c0,0.3,0.4,0.6,0.5,0.8c0.2,0.3,0.4,0.6,0.6,1c0.4,0.6,0.6,1.3,0.8,2c0.3,1.2,0.5,2.4,0.4,3.7
				c0,0.4,0,0.8-0.1,1.2c0,0.1,0,0.2-0.1,0.3c0,0.3,0-0.1,0,0c-0.1,0.4-0.1,0.7,0.3,0.9c0.8,0.5,1.7,0.8,2.5,1.2
				c3.4,1.4,6.8,2.7,10.2,3.9c3.5,1.3,7.1,2.5,10.6,3.7c0.9,0.3,1.9,0.6,2.8,0.9c0.3,0.1,0.5,0.1,0.8,0c0.9-0.5,2.2-2.3,3.1-1
				c0.3,0.5,0.6,1.1,0.8,1.6c0.1,0.3-0.1,0.7,0.1,1c0.1,0.2,0.4,0.3,0.5,0.4c0.8,0.4,1.7,0.8,2.6,1.2c3.3,1.4,6.6,2.8,9.9,4.2
				c3.9,1.6,7.8,3.2,11.7,4.8c2.6,1,5.2,2.1,7.8,3c0.2,0.1,0.5,0.2,0.7,0.2c0.6,0.1,0.9-0.8,0.3-0.9c-0.5-0.1-1-0.3-1.5-0.5
				c-1-0.4-2.1-0.8-3.1-1.2c-3-1.2-6-2.4-9-3.6c-5.8-2.4-11.6-4.8-17.3-7.3c-0.6-0.3-1.1-0.5-1.7-0.8c-0.2-0.1-0.1-0.1,0,0
				c0,0.1,0.1,0.4,0.1,0.3c0.1-0.2,0-0.5,0-0.7c-0.2-0.9-0.6-1.9-1.2-2.5c-0.7-0.8-1.9-0.6-2.7-0.1c-0.4,0.3-1,0.7-1.3,1.1
				c-0.3,0.3,0.1,0,0.1,0c0.1-0.1,0.1,0,0,0c-0.6-0.3-1.3-0.4-1.9-0.6c-6-2-11.9-4.1-17.8-6.4c-2.1-0.8-4.3-1.5-6.2-2.6
				c-0.1,0-0.2-0.1-0.3-0.2c-0.1-0.1,0,0,0,0c0,0,0,0,0,0c0-0.1,0.1,0.2,0.1,0.2c0,0.2-0.2,0.7,0,0.3c0-0.1,0.1-0.1,0.1-0.2
				c0.1-0.2,0.1-0.5,0.1-0.8c0.2-1.9,0-3.9-0.6-5.7c-0.2-0.6-0.4-1.1-0.7-1.7c-0.1-0.3-0.3-0.5-0.5-0.7c-0.2-0.3-0.5-0.5-0.6-0.8
				c0,0.1,0,0.3,0,0.4c0,0.2,0.2,0,0.3-0.1c0.2-0.1,0.4-0.2,0.6-0.3c0.5-0.3,1-0.6,1.5-0.9c1-0.6,1.9-1.2,2.8-1.9
				c1.9-1.3,3.8-2.5,5.6-3.8c3.7-2.5,7.3-5.1,10.9-7.7c2.1-1.5,4.1-2.9,6.2-4.4C112.7-441.2,112.2-442,111.7-441.6L111.7-441.6z"/>
			<path class="st2" d="M112.1-440.9c8.3,1.2,16.6,4.2,22.9,10c1.8,1.7,3.5,3.6,4.8,5.8c0.3,0.5,1.2,0,0.8-0.5
				c-4.9-7.5-12.7-12.3-21.2-14.7c-2.3-0.7-4.7-1.1-7.1-1.5C111.8-441.9,111.5-441,112.1-440.9L112.1-440.9z"/>
			<path class="st2" d="M140.8-424.9c8.6-3.2,18-4,26.8-1.1c4.7,1.6,9.2,4.1,12.7,7.6c0.1,0.1,0.5,0.6,0.6,0.6c0,0-0.1-0.2-0.1-0.3
				c-0.1-0.1,0.1-0.1,0,0c-0.1,0.1-0.1,0.3-0.1,0.4c-0.1,0.3-0.3,0.7-0.4,1c-0.5,1.5-1.4,3.7-0.7,5.3c0.3,0.6,1.1,0.1,0.8-0.5
				c-0.3-0.7-0.1-1.6,0.1-2.2c0.2-0.9,0.5-1.7,0.8-2.5c0.2-0.4,0.5-1,0.5-1.4c0-0.3-0.3-0.5-0.5-0.7c-1.3-1.3-2.8-2.5-4.3-3.5
				c-5.7-4-12.6-6.2-19.6-6.4c-5.8-0.2-11.5,1-16.9,2.9C139.9-425.6,140.2-424.7,140.8-424.9L140.8-424.9z"/>
			<path class="st2" d="M150.7-386.4c3-3.1,6.3-5.8,9.6-8.5c4.5-3.8,9.2-7.6,13.9-11.3c2-1.6,4.1-3.2,6.2-4.6c0.5-0.4,0-1.2-0.5-0.8
				c-4.2,2.9-8.2,6.2-12.2,9.4c-4.5,3.6-8.9,7.3-13.3,11.1c-1.5,1.3-3,2.6-4.4,4C149.6-386.6,150.3-385.9,150.7-386.4L150.7-386.4z"
				/>
			<path class="st2" d="M115.7-403.7c3.9-3,9-3.7,13.8-3.2c2.7,0.3,5.3,1,7.8,1.8c2.2,0.7,4.4,1.5,6.4,2.6c2,1,4,2.2,5.8,3.7
				c0.9,0.7,1.7,1.5,2.5,2.4c0.7,0.7,1.4,1.3,2.3,0.6c2.2-1.7,4.3-3.5,6.5-5.2c2.1-1.7,4.3-3.5,6.4-5.2c4.8-3.9,9.6-7.8,14.5-11.7
				c0.5-0.4-0.2-1.1-0.7-0.7c-8.5,6.9-17,13.8-25.6,20.7c-0.5,0.4-1,0.9-1.6,1.3c-0.4,0.3-0.5,0.2-0.8-0.1c-0.2-0.2-0.4-0.4-0.6-0.7
				c-0.8-0.8-1.6-1.6-2.5-2.3c-1.8-1.4-3.7-2.6-5.7-3.6c-4.3-2.1-9.1-3.7-13.8-4.4c-5.2-0.8-10.9-0.2-15.2,3.2
				C114.7-404.2,115.2-403.3,115.7-403.7L115.7-403.7z"/>
			<path class="st2" d="M84.6-421.1c4.9-0.8,10.1-0.1,14.8,1.8c2.3,0.9,4.4,2.1,6.4,3.4c1.9,1.3,3.8,2.7,5.4,4.4
				c1.8,1.9,3.2,4.1,4,6.7c0.2,0.6,1.1,0.3,0.9-0.3c-1.4-4.7-4.9-8.2-8.9-11c-4.3-3-9-5.1-14.2-5.9c-2.9-0.4-5.8-0.5-8.7,0
				C83.7-422,83.9-421,84.6-421.1L84.6-421.1z"/>
			<path class="st2" d="M85.7-414.2c-0.7,0.6-1.5,1.2-2.2,1.9c-0.6,0.5-1.4,1.1-1.9,1.7c-0.9,1.1-0.6,2.5,0.4,3.3
				c1.1,0.9,2.8,1,4.1,1.3c1.5,0.4,2.9,0.7,4.4,1.1c6.1,1.6,12.2,3.5,18.2,5.6c0.8,0.3,1.5,0.5,2.1,1.1c0.6,0.5,1.1,0.9,1.9,1.2
				c1.6,0.7,3.4,0.8,5,0.4c0.6-0.2,0.3-1.1-0.3-0.9c-1.5,0.4-3.1,0.3-4.4-0.3c-1.1-0.5-1.9-1.5-3-2c-2.6-1-5.2-1.8-7.9-2.6
				c-5.5-1.7-11.1-3.3-16.8-4.7c-0.8-0.2-1.6-0.3-2.3-0.7c-0.8-0.4-1.4-1.3-0.7-2.1c0.5-0.6,1.2-1.1,1.8-1.6
				c0.8-0.6,1.5-1.3,2.3-1.9C86.9-413.9,86.2-414.6,85.7-414.2L85.7-414.2z"/>
			<path class="st2" d="M117.5-396.8c5.7,2.8,11.3,5.5,17,8.3c2.7,1.3,5.3,2.6,7.9,4.1c1.3,0.8,2.6,1.6,3.9,2.3
				c1.1,0.6,2.4,1.4,3.7,1.5c1.2,0,2.2-0.7,3.1-1.5c1.2-1,2.4-2,3.6-3.1c2.4-2,4.7-4.1,7.1-6.1c4.8-4.1,9.5-8.2,14.3-12.2
				c1.3-1.1,2.6-2.3,4-3.4c1-0.9,2.4-1.8,2.8-3.1c0.3-1.2-0.1-2.5-1.1-3.3c-1-0.8-2.3-1-3.6-0.8c-0.6,0.1-0.4,1.1,0.3,0.9
				c1.1-0.2,2.5,0.1,3.1,1.1c0.7,1.1,0.3,2.2-0.6,3.1c-1,1-2.1,1.8-3.2,2.7c-1.1,0.9-2.2,1.9-3.3,2.8c-4.4,3.7-8.7,7.5-13.1,11.2
				c-2.2,1.9-4.4,3.8-6.6,5.7c-1.1,0.9-2.2,1.9-3.3,2.8c-0.9,0.8-2,2-3.2,2.1c-0.7,0-1.3-0.3-1.9-0.5c-0.6-0.3-1.3-0.6-1.9-1
				c-1.1-0.7-2.3-1.3-3.4-2c-2.4-1.4-4.9-2.6-7.4-3.9c-5.8-2.8-11.7-5.7-17.5-8.5C117.5-397.9,117-397.1,117.5-396.8L117.5-396.8z"
				/>
			<path class="st2" d="M116-404.2c6.2-5.7,12.5-11.2,19.1-16.3c1.9-1.5,3.8-2.9,5.8-4.3c0.5-0.4,0-1.2-0.5-0.8
				c-6.9,4.9-13.4,10.3-19.7,16c-1.8,1.6-3.6,3.2-5.3,4.8C114.9-404.4,115.6-403.8,116-404.2L116-404.2z"/>
			<path class="st2" d="M85.6-419.3c4.4,0.2,8.8,1.1,12.9,2.7c4,1.5,7.8,3.8,10.9,6.8c1.8,1.7,3.3,3.5,4.7,5.6
				c0.2,0.3,0.6,0,0.4-0.2c-2.4-3.7-5.5-6.8-9.2-9.2c-3.7-2.4-7.9-4.1-12.2-5.1c-2.5-0.6-5-0.9-7.5-1
				C85.3-419.8,85.3-419.3,85.6-419.3L85.6-419.3z"/>
			<path class="st2" d="M86.2-416.2c4,0.6,7.9,1.5,11.7,2.7c3.7,1.3,7.4,3,10.5,5.3c1.8,1.3,3.4,2.9,4.8,4.7
				c0.2,0.2,0.5-0.1,0.3-0.3c-2.5-3.1-5.7-5.6-9.2-7.4c-3.6-1.9-7.4-3.2-11.4-4.1c-2.2-0.5-4.4-1-6.7-1.3
				C86-416.7,85.9-416.3,86.2-416.2L86.2-416.2z"/>
			<path class="st2" d="M86.7-414.1c3.1,0.6,6.2,1.4,9.2,2.4c3.6,1.3,7.2,2.8,10.5,4.7c2.1,1.2,4.1,2.5,6.1,3.9
				c0.3,0.2,0.5-0.2,0.2-0.4c-3.4-2.5-7-4.6-10.8-6.3c-3.3-1.5-6.7-2.7-10.1-3.7c-1.6-0.4-3.3-0.8-5-1.1
				C86.5-414.7,86.4-414.2,86.7-414.1L86.7-414.1z"/>
			<path class="st2" d="M116.7-403.1c4.7-1.3,9.6-1.6,14.4-0.8c4.8,0.7,9.5,2.4,13.7,4.9c2.4,1.4,4.6,3.1,6.6,5
				c0.2,0.2,0.6-0.1,0.3-0.3c-3.6-3.5-7.9-6.1-12.6-7.9c-4.6-1.8-9.6-2.7-14.5-2.5c-2.7,0.1-5.5,0.5-8.1,1.2
				C116.2-403.4,116.4-403,116.7-403.1L116.7-403.1z"/>
			<path class="st2" d="M152.8-396.2c-2.2,2.3-3.1,5.5-2.6,8.6c0.1,0.3,0.5,0.2,0.5-0.1c-0.5-2.9,0.4-6,2.5-8.1
				C153.4-396.1,153.1-396.4,152.8-396.2L152.8-396.2z"/>
			<path class="st2" d="M117.6-402c4.4-0.4,8.9,0.3,13.1,1.4c4.6,1.2,9,3,13.2,5.3c2.2,1.2,4.4,2.5,6.4,4c0.3,0.2,0.5-0.2,0.2-0.4
				c-3.8-2.7-7.8-4.9-12.1-6.7c-4.3-1.8-8.9-3.2-13.6-3.8c-2.4-0.3-4.8-0.4-7.2-0.2C117.3-402.5,117.3-402,117.6-402L117.6-402z"/>
			<path class="st2" d="M117.5-401.1c4.5,0.1,9,1.1,13.2,2.6c4.4,1.5,8.6,3.6,12.7,5.8c2.2,1.2,4.5,2.5,6.7,3.7
				c0.3,0.2,0.5-0.3,0.2-0.4c-4-2.3-8.1-4.6-12.3-6.5c-4.2-2-8.5-3.7-13.1-4.7c-2.5-0.5-5-0.9-7.5-0.9
				C117.2-401.6,117.2-401.1,117.5-401.1L117.5-401.1z"/>
			<path class="st2" d="M150.7-388.7c3.5-3.4,7.2-6.7,10.9-9.9c3.8-3.2,7.6-6.3,11.6-9.2c2.2-1.7,4.5-3.3,6.7-4.9
				c0.3-0.2,0-0.6-0.2-0.4c-4,2.8-8,5.8-11.8,8.8c-3.9,3.1-7.7,6.3-11.4,9.6c-2.1,1.8-4.1,3.7-6.1,5.7
				C150.2-388.9,150.5-388.5,150.7-388.7L150.7-388.7z"/>
			<path class="st2" d="M151.1-391.6c1-0.9,2-1.7,3.1-2.5c1.9-1.6,3.8-3.1,5.7-4.6c2.3-1.9,4.7-3.8,7-5.6c2.3-1.9,4.7-3.7,7-5.6
				c1.9-1.5,3.8-3,5.7-4.4c0.2-0.1,0.4-0.3,0.6-0.4c0.2-0.2,0-0.6-0.2-0.4c-1.8,1.4-3.7,2.8-5.5,4.2c-2.3,1.8-4.6,3.7-6.9,5.5
				c-2.4,1.9-4.8,3.8-7.1,5.7c-2,1.6-4,3.2-6,4.8c-1.2,0.9-2.3,1.9-3.5,2.9c-0.1,0.1-0.1,0.1-0.2,0.2
				C150.5-391.7,150.8-391.4,151.1-391.6L151.1-391.6z"/>
			<path class="st2" d="M82.7-409.6c1.7,0.4,3.3,0.9,4.9,1.3c2.3,0.7,4.5,1.3,6.7,2c2.4,0.7,4.7,1.5,7.1,2.2c2,0.6,3.9,1.2,5.9,1.9
				c1.1,0.3,2.2,0.7,3.3,1c0.1,0,0.1,0,0.2,0c0.3,0.1,0.4-0.4,0.1-0.5c-1-0.2-1.9-0.6-2.9-0.9c-1.9-0.6-3.8-1.2-5.7-1.8
				c-2.3-0.7-4.7-1.5-7-2.2c-2.3-0.7-4.6-1.4-6.9-2.1c-1.7-0.5-3.5-1-5.3-1.5c-0.2,0-0.3-0.1-0.5-0.1
				C82.5-410.1,82.4-409.7,82.7-409.6L82.7-409.6z"/>
			<path class="st2" d="M111.2-401.3c-0.3,0.9,0.5,1.6,1.2,2c0.9,0.6,2.1,0.9,3.2,0.7c0.6-0.1,1.2-0.3,1.6-0.7
				c0.2-0.2-0.1-0.6-0.3-0.3c-0.9,0.8-2.4,0.6-3.4,0.3c-0.7-0.2-2.1-0.9-1.8-1.9C111.7-401.5,111.3-401.6,111.2-401.3L111.2-401.3z"
				/>
			<path class="st2" d="M117.1-399.3c4.3,2,8.6,4,12.9,6c4.3,2,8.5,4,12.8,6c2.4,1.1,4.8,2.3,7.1,3.5c0.3,0.1,0.5-0.3,0.2-0.4
				c-4.2-2.1-8.5-4.1-12.7-6.1c-4.3-2-8.6-4-12.8-6c-2.4-1.1-4.8-2.3-7.3-3.4C117.1-399.8,116.8-399.4,117.1-399.3L117.1-399.3z"/>
			<path class="st2" d="M150.8-383.7c1.7-1.3,3.3-2.8,5-4.1c2.6-2.2,5.1-4.4,7.7-6.6c2.8-2.4,5.7-4.8,8.5-7.2
				c2.5-2.1,4.9-4.2,7.4-6.3c0.9-0.8,1.8-1.5,2.7-2.3c0.3-0.3,0.7-0.6,1-0.8c0.1-0.1,0.3-0.2,0.4-0.3c0.1,0,0.1-0.1,0.2-0.1
				c0,0,0.2-0.1,0.1-0.1c0.1-0.1,0.2-0.1,0.2-0.2c0.3-0.2,0-0.6-0.2-0.4c-1.4,1-2.7,2.1-4,3.2c-2.4,2-4.8,4-7.2,6.1
				c-2.8,2.4-5.7,4.8-8.5,7.2c-2.6,2.2-5.3,4.5-7.9,6.7c-1.8,1.5-3.6,3.1-5.4,4.5c-0.1,0.1-0.3,0.2-0.4,0.3
				C150.2-383.9,150.5-383.5,150.8-383.7L150.8-383.7z"/>
		</g>
		<g>
			<g>
				<path class="st2" d="M299.2-442.9c0-0.4,0.3-0.7,0.6-0.8c0.5-0.1,0.9,0.2,1.3,0.5c0.7,0.6,1.5,1.2,2.2,1.8
					c1.4,1.2,2.9,2.4,4.3,3.6c1.4,1.2,2.9,2.5,4.3,3.7c1.2,1.1,2.7,2.2,3.5,3.6c0.9,1.6,0.9,3.6,0.1,5.2c-0.2,0.4,0.4,0.8,0.7,0.4
					c0.8-1.6,0.9-3.4,0.3-5.2c-0.7-1.8-2.2-3-3.6-4.2c-3.3-2.9-6.7-5.8-10.1-8.6c-0.7-0.6-1.6-1.6-2.6-1.6c-0.9,0-1.6,0.7-1.6,1.6
					C298.4-442.5,299.2-442.5,299.2-442.9L299.2-442.9z"/>
				<path class="st2" d="M292.4-442c2.1,0,4.2-0.2,6.3-0.1c0.5,0,0.5-0.7,0-0.8c-2.1-0.1-4.2,0.1-6.3,0.1
					C291.9-442.7,291.9-442,292.4-442L292.4-442z"/>
				<path class="st2" d="M298.7-442.2c2.8,2.4,5.5,4.8,8.2,7.3c1.4,1.2,2.7,2.5,4,3.7c0.5,0.5,1.4,1.1,1.7,1.8
					c0.2,0.7-0.1,1.4-0.6,1.8c-1.3,1.1-3.3,0.3-4.5-0.5c-1.4-0.9-2.8-2.1-4-3.2c-2.7-2.5-5.3-5.1-8-7.6c-1.4-1.3-2.8-2.6-3.9-4.2
					c-0.4-0.6-0.8-1.3-1.5-1.5c-0.6-0.2-1.3,0.1-1.7,0.6c-0.3,0.4,0.2,0.9,0.5,0.5c0.2-0.3,0.5-0.5,0.8-0.5c0.4,0,0.7,0.4,0.9,0.7
					c0.5,0.7,0.9,1.3,1.4,1.9c1.2,1.4,2.5,2.6,3.8,3.8c2.7,2.6,5.4,5.3,8.3,7.8c1.3,1.1,2.6,2.3,4.2,3c1.3,0.6,3,0.8,4.2-0.2
					c1.1-0.9,1.2-2.4,0.3-3.5c-0.6-0.6-1.3-1.2-1.9-1.8c-0.7-0.7-1.4-1.3-2.2-2c-3.1-2.9-6.3-5.8-9.6-8.6
					C298.9-443.1,298.4-442.5,298.7-442.2L298.7-442.2z"/>
				<path class="st2" d="M288.1-443.5c-4.9,8.1-9.6,16.4-13.8,25c-0.5,1-1,2.1-0.9,3.2c0,1.1,0.5,2.1,1.1,2.9
					c0.3,0.4,0.8-0.2,0.5-0.5c-0.6-0.8-1-1.7-0.9-2.7c0.1-1.1,0.6-2.1,1.1-3c1-2,2-4,3.1-6c2.1-4,4.3-7.9,6.5-11.9
					c1.3-2.2,2.6-4.4,3.9-6.6C289-443.6,288.3-444,288.1-443.5L288.1-443.5z"/>
				<path class="st2" d="M274.7-412.2c3.3,3.6,6.7,7,10.2,10.3c3.1,2.9,6.6,5.9,11,6.2c2,0.1,4-0.4,5.3-2.1c0.3-0.4-0.4-0.8-0.7-0.4
					c-1.1,1.5-2.9,1.8-4.6,1.7c-1.9-0.1-3.7-0.8-5.4-1.8c-1.9-1.2-3.6-2.7-5.3-4.3c-1.6-1.5-3.3-3.1-4.8-4.7
					c-1.8-1.8-3.5-3.6-5.3-5.5C274.9-413.1,274.3-412.6,274.7-412.2L274.7-412.2z"/>
				<path class="st2" d="M315.2-424.9c-3.6,6.8-7.4,13.6-11.1,20.4c-1,1.9-2.1,3.8-3.1,5.8c-0.2,0.4,0.4,0.8,0.7,0.4
					c3.6-6.8,7.4-13.6,11.1-20.4c1-1.9,2.1-3.8,3.1-5.8C316.1-424.9,315.4-425.3,315.2-424.9L315.2-424.9z"/>
				<path class="st2" d="M304.4-425.1c-3.4,6.1-6.7,12.2-10.1,18.3c-0.9,1.7-1.9,3.5-2.8,5.2c-0.2,0.4,0.4,0.8,0.7,0.4
					c3.4-6.1,6.7-12.2,10.1-18.3c0.9-1.7,1.9-3.5,2.8-5.2C305.2-425.2,304.6-425.5,304.4-425.1L304.4-425.1z"/>
				<path class="st2" d="M315-453.8c-0.1-0.5-0.1-1.2,0.4-1.5c0.4-0.2,1,0.1,1.4,0.3c1.5,0.9,3,1.9,4.4,2.9c2.9,2,5.6,4.2,8.2,6.5
					c1.3,1.1,3,2.4,3.3,4.2c0.1,0.5,0.8,0.3,0.7-0.2c-0.3-1.7-1.8-3-3.1-4.1c-1.5-1.3-3-2.6-4.5-3.8c-1.5-1.2-3.1-2.4-4.7-3.5
					c-0.8-0.6-1.7-1.1-2.5-1.7c-0.7-0.4-1.4-0.9-2.2-1.2c-0.5-0.2-1.1-0.2-1.6,0.1c-0.6,0.5-0.7,1.3-0.6,2
					C314.3-453.3,315.1-453.3,315-453.8L315-453.8z"/>
				<path class="st2" d="M332.6-440.7c-0.3,10.9-0.7,21.8-1.2,32.8c-0.1,3.1-0.3,6.2-0.5,9.2c0,0.5,0.7,0.5,0.8,0
					c0.6-10.9,1-21.8,1.4-32.8c0.1-3.1,0.2-6.2,0.3-9.2C333.4-441.1,332.6-441.1,332.6-440.7L332.6-440.7z"/>
				<path class="st2" d="M330.9-398.6c-1.2,3-4.7,3.7-7.6,3.2c-4.1-0.7-7.1-3.7-10-6.5c-2.1-2-4.1-3.9-6.2-5.9
					c-0.4-0.3-0.9,0.2-0.5,0.5c2,1.9,4,3.8,5.9,5.7c1.8,1.7,3.6,3.5,5.6,4.9c2.8,1.9,6.6,3,9.9,1.8c1.7-0.6,3-1.8,3.6-3.5
					C331.8-398.9,331.1-399.1,330.9-398.6L330.9-398.6z"/>
				<path class="st2" d="M315.4-453.5c3.1,2.4,6.3,4.6,9.4,7c0.8,0.6,1.6,1.3,2.4,1.9c0.7,0.6,1.6,1.2,2,2c0.5,1-0.2,1.8-1.1,2.1
					c-0.9,0.3-1.9,0.3-2.8,0.1c-1.9-0.5-3.6-1.8-5.3-2.9c-1.7-1.1-3.5-2.3-5.2-3.5c-1.8-1.2-3.5-2.4-5.3-3.7
					c-0.9-0.6-1.7-1.2-2.5-1.8c-0.8-0.6-1.6-1.3-2.4-1.7c-0.7-0.3-1.5-0.2-2,0.5c-0.5,0.6-0.6,1.4-0.7,2.1c-0.2,2.4-0.4,4.8-0.6,7.2
					c0,0.5,0.7,0.5,0.8,0c0.2-2.2,0.4-4.3,0.5-6.5c0.1-0.8,0.1-1.7,0.5-2.4c0.6-0.9,1.6,0,2.2,0.4c3.5,2.5,7,5,10.5,7.4
					c1.8,1.2,3.6,2.4,5.4,3.6c1.6,1,3.2,2.1,5.2,2.1c1.5,0,3.7-0.7,3.6-2.5c0-0.8-0.6-1.5-1.2-2.1c-0.7-0.7-1.5-1.3-2.2-1.9
					c-3.5-2.9-7.3-5.3-10.8-8.1C315.5-454.3,315-453.8,315.4-453.5L315.4-453.5z"/>
				<path class="st2" d="M315.3-454.1c-3.2,0.4-6.4,0.7-9.6,0.9c-0.5,0-0.5,0.8,0,0.8c3.2-0.2,6.4-0.5,9.6-0.9
					C315.8-453.4,315.8-454.1,315.3-454.1L315.3-454.1z"/>
				<path class="st2" d="M320.2-439.6c-1.1,10.7-1.6,21.4-2.1,32c-0.1,3-0.2,6-0.4,9c0,0.5,0.7,0.5,0.8,0
					c0.4-10.8,0.9-21.5,1.7-32.3c0.2-2.9,0.5-5.9,0.8-8.8C321-440.1,320.3-440.1,320.2-439.6L320.2-439.6z"/>
				<path class="st2" d="M330-445.9c0.1-0.5,0.5-0.7,0.9-0.9c0.4-0.1,0.6-0.1,0.9,0.1c0.4,0.2,0.8,0.5,1.1,0.8
					c1.1,0.8,2.2,1.7,3.3,2.5c2.4,1.9,4.7,3.9,7.1,5.8c1.2,1,2.9,2.1,3.2,3.8c0.1,0.5,0.8,0.3,0.7-0.2c-0.3-1.7-1.9-2.8-3.1-3.9
					c-1.2-1-2.3-2-3.5-2.9c-2.5-2.1-5-4.2-7.6-6c-0.4-0.3-1-0.8-1.5-0.8c-0.5,0-1.1,0.2-1.5,0.5c-0.4,0.3-0.6,0.7-0.7,1.2
					C329.2-445.4,329.9-445.4,330-445.9L330-445.9z"/>
				<path class="st2" d="M331.7-400.6c2.2,2,5.2,3.6,8.2,3.6c2.3,0,5.3-1.4,5.3-4c0-0.5-0.7-0.5-0.8,0c0,1.1-0.8,1.9-1.6,2.4
					c-1,0.7-2.2,0.9-3.5,0.8c-2.6-0.2-5.2-1.6-7.1-3.4C331.9-401.4,331.4-400.9,331.7-400.6L331.7-400.6z"/>
				<path class="st2" d="M345.4-401c0.3-2,0.4-4,0.5-6.1c0.1-2.1,0.2-4.2,0.3-6.3c0.2-4.2,0.5-8.5,0.7-12.7c0.1-2.4,0.3-4.8,0.4-7.2
					c0-0.5-0.7-0.5-0.8,0c-0.5,8.4-0.9,16.7-1.4,25.1c-0.1,2.3-0.2,4.7-0.5,7C344.6-400.7,345.3-400.5,345.4-401L345.4-401z"/>
				<path class="st2" d="M333-435.5c1.1,0.9,2.2,1.8,3.3,2.6c1.2,0.9,2.6,1.8,4.2,2c1.7,0.2,4.6-0.7,4.6-2.9c0-0.8-0.4-1.4-0.9-1.9
					c-0.6-0.7-1.2-1.2-1.9-1.8c-1.8-1.6-3.7-3.1-5.7-4.6c-1-0.8-2.1-1.6-3.1-2.4c-0.4-0.3-0.9-0.7-1.3-1c-0.5-0.4-1.2-0.5-1.7,0
					c-0.4,0.3,0,0.9,0.4,0.7c0.2-0.2,0.5-0.3,0.8-0.1c0.2,0.1,0.3,0.3,0.5,0.4c0.4,0.3,0.7,0.5,1.1,0.8c0.8,0.6,1.7,1.3,2.5,1.9
					c1.8,1.4,3.5,2.7,5.2,4.2c0.7,0.6,1.4,1.2,2,1.8c0.4,0.4,0.9,0.8,1.2,1.3c1.1,1.9-1.6,3-3,3c-1.5,0-2.9-0.9-4-1.7
					c-1.2-0.8-2.4-1.7-3.5-2.7C333.2-436.3,332.6-435.8,333-435.5L333-435.5z"/>
				<path class="st2" d="M335.8-401.1c0.3-7.6,0.6-15.2,0.8-22.9c0.1-2.2,0.1-4.4,0.2-6.6c0-0.5-0.7-0.5-0.8,0
					c-0.2,7.6-0.5,15.3-0.8,22.9c-0.1,2.2-0.2,4.4-0.3,6.6C335-400.6,335.7-400.6,335.8-401.1L335.8-401.1z"/>
			</g>
			<path class="st2" d="M293.4-442.1c1.9,2.2,4,4.3,6.1,6.3c2.1,2,4.3,4,6.6,6c1.2,1.1,2.5,2.2,3.7,3.2c0.2,0.2,0.4-0.1,0.3-0.3
				c-2.2-1.9-4.4-3.8-6.6-5.8c-2.2-2-4.3-4-6.4-6.1c-1.1-1.2-2.3-2.4-3.3-3.6C293.5-442.6,293.2-442.3,293.4-442.1L293.4-442.1z"/>
			<path class="st2" d="M294.6-442.4c1.9,2.2,4,4.3,6.1,6.3c2.1,2,4.4,4,6.6,5.9c1.2,1.1,2.5,2.2,3.7,3.2c0.2,0.2,0.4-0.1,0.3-0.3
				c-2.2-1.9-4.4-3.8-6.6-5.8c-2.2-2-4.4-4-6.4-6.1c-1.2-1.2-2.3-2.3-3.4-3.6C294.7-442.9,294.4-442.6,294.6-442.4L294.6-442.4z"/>
			<path class="st2" d="M296.4-442.3c3.7,4.2,7.8,7.9,12,11.5c1.2,1.1,2.4,2.1,3.6,3.2c0.2,0.2,0.4-0.1,0.3-0.3
				c-4.2-3.7-8.4-7.2-12.3-11.2c-1.1-1.1-2.2-2.3-3.3-3.5C296.5-442.8,296.3-442.5,296.4-442.3L296.4-442.3z"/>
			<path class="st2" d="M298-442.3c1.8,2,3.6,3.9,5.5,5.7c1.8,1.7,3.7,3.3,5.6,4.9c1.2,1,2.3,2,3.5,3c0.2,0.2,0.4-0.1,0.3-0.3
				c-3.9-3.4-7.9-6.6-11.5-10.2c-1.1-1.1-2.1-2.2-3.2-3.4C298.1-442.7,297.8-442.5,298-442.3L298-442.3z"/>
			<path class="st2" d="M307.6-452.9c4.8,3.5,9.7,7,14.6,10.4c1.3,0.9,2.7,1.8,4,2.8c0.2,0.1,0.4-0.2,0.2-0.3
				c-4.8-3.3-9.6-6.7-14.4-10.1c-1.4-1-2.8-2-4.2-3.1C307.6-453.4,307.4-453.1,307.6-452.9L307.6-452.9z"/>
			<path class="st2" d="M312.4-453c4.3,3.1,8.4,6.5,12.7,9.7c1.2,0.9,2.5,1.8,3.7,2.6c0.2,0.1,0.4-0.2,0.2-0.3
				c-4.3-2.9-8.3-6.2-12.4-9.3c-1.3-1-2.6-2-3.9-3C312.4-453.5,312.3-453.2,312.4-453L312.4-453z"/>
			<path class="st2" d="M310.5-452.7c4.4,3.3,8.8,6.6,13.3,9.8c1.3,0.9,2.5,1.8,3.8,2.7c0.2,0.1,0.4-0.2,0.2-0.3
				c-4.4-3.1-8.8-6.3-13.1-9.5c-1.3-1-2.7-2-4-3C310.5-453.1,310.3-452.8,310.5-452.7L310.5-452.7z"/>
			<path class="st2" d="M314-453.2c3.9,2.9,7.8,5.9,11.7,8.8c1.2,0.9,2.4,1.7,3.6,2.5c0.2,0.1,0.4-0.2,0.2-0.3
				c-3.9-2.7-7.7-5.6-11.5-8.5c-1.3-1-2.5-1.9-3.8-2.8C314-453.7,313.8-453.4,314-453.2L314-453.2z"/>
			<path class="st2" d="M332.8-437.3c2.7,2.2,5.7,3.9,8.5,6c0.2,0.1,0.4-0.2,0.2-0.3c-1.4-1.1-2.9-2.1-4.4-3.1
				c-1.3-0.9-2.7-1.8-3.9-2.8C332.9-437.8,332.6-437.5,332.8-437.3L332.8-437.3z"/>
			<path class="st2" d="M331.4-444.1c3.3,2.7,6.7,5.3,10.1,8c1,0.8,1.9,1.5,2.9,2.3c0.2,0.2,0.5-0.1,0.3-0.3c-3.3-2.7-6.7-5.3-10-8
				c-1-0.8-2-1.6-2.9-2.4C331.5-444.5,331.2-444.2,331.4-444.1L331.4-444.1z"/>
			<path class="st2" d="M333.3-440.3c2.6,2.1,5.2,4,7.8,6c0.8,0.6,1.6,1.2,2.3,1.8c0.2,0.2,0.5-0.1,0.3-0.3c-2.6-2.1-5.2-4-7.8-6
				c-0.8-0.6-1.6-1.2-2.3-1.8C333.4-440.8,333.2-440.5,333.3-440.3L333.3-440.3z"/>
			<path class="st2" d="M333.3-438.7c1.3,1,2.6,1.9,3.9,2.8c1.4,1,2.8,1.9,4.2,2.9c0.4,0.3,0.8,0.5,1.1,0.9c0.2,0.2,0.4-0.1,0.3-0.3
				c-0.3-0.3-0.6-0.5-1-0.7c-0.6-0.4-1.2-0.9-1.8-1.3c-1.5-1-3-2.1-4.5-3.2c-0.7-0.5-1.3-0.9-1.9-1.4
				C333.3-439.1,333.1-438.9,333.3-438.7L333.3-438.7z"/>
		</g>
		<g>
			<g>
				<path class="st2" d="M269.5-189.9C269.4-189.9,269.5-189.9,269.5-189.9C269.5-190,269.5-190,269.5-189.9
					C269.5-189.9,269.5-189.9,269.5-189.9C269.4-189.8,269.5-190,269.5-189.9c0,0,0,0.1,0,0.1C269.4-189.8,269.5-189.9,269.5-189.9
					c0,0.1,0,0.2,0,0.3c0,0,0-0.1,0-0.1c0,0.1,0,0.2,0,0.3c0,0,0.1,0.1,0,0c0,0,0,0.1,0,0.1c0,0.1,0,0.1,0.1,0.2c0,0,0,0.1,0,0.1
					c0,0,0.1,0.1,0,0c0,0.1,0.1,0.1,0.1,0.2c0,0,0.1,0.1,0.1,0.1c-0.1-0.1,0,0,0,0c0,0,0.1,0,0.1,0.1c0.2,0.2,0.3,0.5,0.1,0.7
					c-0.2,0.2-0.5,0.3-0.7,0.1c-0.4-0.3-0.8-0.9-0.8-1.4c-0.1-0.5,0-1,0.4-1.4c0.2-0.2,0.6-0.1,0.7,0.1
					C269.7-190.4,269.7-190.1,269.5-189.9L269.5-189.9z"/>
				<path class="st2" d="M270-188.6c6,2.7,11.8,5.9,17.6,9.1c2.9,1.6,5.7,3.2,8.6,4.7c1.4,0.8,2.9,1.5,4.4,2.2
					c1.4,0.7,2.8,1.2,4,2.2c2.1,1.8,3.9,4.3,4.3,7.1c0.4,2.6-0.6,5.4-2.8,6.9c-2.4,1.8-5.5,1.2-8.1,0c-1.5-0.7-3-1.5-4.4-2.4
					c-1.5-0.9-3.1-1.7-4.6-2.6c-7-3.9-13.9-7.9-20.9-11.8c-0.6-0.3-0.2-1.3,0.4-1c5.9,3.3,11.7,6.6,17.6,9.9
					c2.9,1.6,5.8,3.3,8.7,4.9c2.5,1.4,5.4,3.3,8.4,2.9c2.7-0.4,4.5-2.9,4.7-5.6c0.1-2.9-1.6-5.5-3.6-7.3c-1.1-1-2.5-1.6-3.8-2.3
					c-1.4-0.7-2.8-1.4-4.2-2.1c-2.7-1.4-5.4-2.9-8-4.3c-6.1-3.4-12.3-6.8-18.6-9.7C269-187.9,269.4-188.9,270-188.6L270-188.6z"/>
				<path class="st2" d="M344.2-180.4c1.3-1.3,2.3-2.9,2.5-4.8c0.1-1.6-0.4-3.1-1.1-4.5c-1.6-3-4.1-5.3-6.8-7.3
					c-3.1-2.3-6.5-4.2-9.9-6c-3.7-1.9-7.5-3.7-11.3-5.4c-1.9-0.9-3.9-1.7-5.9-2.5c-1.8-0.8-4-2-6-1.5c-0.1,0,0.1,0,0,0
					c-0.1,0-0.1,0.1-0.2,0.1c-0.2,0.1-0.5,0.2-0.7,0.4c-0.7,0.4-1.4,0.8-2.2,1.2c-4.3,2.4-8.6,4.9-12.9,7.5
					c-6.9,4.1-13.6,8.6-20.1,13.2c-0.6,0.4-1.2-0.4-0.7-0.8c6.2-4.4,12.6-8.7,19.2-12.7c4.5-2.7,9-5.3,13.5-7.9
					c0.8-0.4,1.6-0.9,2.4-1.3c0.4-0.2,0.8-0.5,1.3-0.6c1.6-0.5,3.6,0.3,5.1,0.9c2,0.8,4,1.7,6,2.6c4.1,1.8,8.1,3.6,12,5.7
					c3.6,1.8,7.1,3.8,10.4,6.1c4.8,3.4,11.5,9.9,7.8,16.4c-0.5,0.9-1.1,1.6-1.9,2.3C344.3-179.1,343.7-180,344.2-180.4L344.2-180.4z
					"/>
				<path class="st2" d="M344.3-179.2c-5.9,5.2-11.9,10.1-18.2,14.8c-3.1,2.3-6.2,4.6-9.4,6.8c-1.5,1-3,2.1-4.6,3.1
					c-1.3,0.9-2.6,1.8-4.2,2.2c-2.6,0.8-5.1-0.3-7.6-1.4c-0.6-0.3-0.2-1.2,0.4-1c2.1,0.9,4.3,2,6.6,1.4c1.5-0.4,2.8-1.2,4.1-2.1
					c1.5-1,3-2.1,4.4-3.1c6.2-4.3,12.2-8.7,18-13.4c3.3-2.7,6.5-5.4,9.7-8.2C344.1-180.5,344.8-179.6,344.3-179.2L344.3-179.2z"/>
				<path class="st2" d="M299.9-153.8c-5.6-3-11.3-6-16.8-9.1c-2.8-1.5-5.6-3.1-8.3-4.7c-1.3-0.8-2.7-1.5-4-2.3
					c-1.3-0.7-2.6-1.4-3.8-2.3c-0.5-0.4-1-0.9-1-1.6c0-1.1,1.2-1.7,2.1-2.1c0.6-0.3,1,0.7,0.4,1c-0.5,0.2-1.7,0.7-1.4,1.4
					c0.3,0.6,1.3,1,1.9,1.3c2.5,1.5,5,2.9,7.5,4.4c5,2.9,10.1,5.7,15.2,8.4c2.9,1.5,5.7,3.1,8.6,4.6
					C300.9-154.5,300.5-153.5,299.9-153.8L299.9-153.8z"/>
				<path class="st2" d="M268.2-173.8c0.3-4.7,0.7-9.4,1-14.1c0-0.7,1.1-0.6,1.1,0.1c-0.3,4.7-0.7,9.4-1,14.1
					C269.2-173,268.1-173.1,268.2-173.8L268.2-173.8z"/>
				<path class="st2" d="M338.7-193.4c-7.4,6.4-15.2,12.5-23.2,18.2c-2.3,1.6-4.6,3.2-6.9,4.7c-0.6,0.4-1.2-0.5-0.7-0.8
					c8.2-5.5,16.1-11.4,23.7-17.6c2.2-1.8,4.3-3.6,6.4-5.4C338.6-194.6,339.2-193.8,338.7-193.4L338.7-193.4z"/>
			</g>
			<path class="st2" d="M307.3-165.2c-4.7-2.8-9.4-5.4-14.2-8c-5-2.7-10-5.3-15-7.9c-2.8-1.5-5.6-2.9-8.4-4.4
				c-0.3-0.2-0.1-0.7,0.2-0.5c5,2.7,10,5.3,15,7.9c5,2.6,10,5.3,14.9,8c2.6,1.5,5.2,2.9,7.8,4.5C307.9-165.5,307.6-165,307.3-165.2
				L307.3-165.2z"/>
			<path class="st2" d="M307.8-162.2c-4.8-2.8-9.6-5.5-14.5-8.1c-5.1-2.8-10.3-5.5-15.5-8.2c-2.8-1.5-5.6-3-8.5-4.5
				c-0.3-0.2-0.1-0.7,0.2-0.5c5.1,2.7,10.2,5.4,15.3,8.1c5.1,2.7,10.3,5.4,15.4,8.3c2.6,1.5,5.3,3,7.9,4.5
				C308.4-162.5,308.1-162.1,307.8-162.2L307.8-162.2z"/>
			<path class="st2" d="M307.5-159.9c-4.8-2.8-9.6-5.5-14.5-8.1c-5.1-2.7-10.3-5.4-15.5-8.1c-2.8-1.5-5.6-2.9-8.4-4.4
				c-0.3-0.2-0.1-0.7,0.2-0.5c5.1,2.7,10.2,5.4,15.3,8c5.1,2.7,10.2,5.4,15.3,8.1c2.7,1.5,5.3,2.9,7.9,4.5
				C308.1-160.1,307.8-159.7,307.5-159.9L307.5-159.9z"/>
			<path class="st2" d="M306.4-157.6c-4.7-2.8-9.4-5.4-14.2-8c-5-2.7-10-5.3-15-7.9c-2.8-1.5-5.6-2.9-8.4-4.4
				c-0.3-0.2-0.1-0.7,0.2-0.5c5,2.7,10,5.3,15,7.9c5,2.6,10,5.3,14.9,8c2.6,1.5,5.2,2.9,7.8,4.5C307-157.8,306.7-157.4,306.4-157.6
				L306.4-157.6z"/>
			<path class="st2" d="M304.8-156.2c-4.5-2.7-9.1-5.2-13.8-7.7c-4.8-2.6-9.6-5.1-14.4-7.6c-2.7-1.4-5.5-2.9-8.2-4.3
				c-0.3-0.2-0.1-0.7,0.2-0.5c4.9,2.6,9.7,5.1,14.6,7.7c4.8,2.5,9.5,5,14.2,7.6c2.6,1.4,5.1,2.9,7.6,4.4
				C305.4-156.5,305.1-156.1,304.8-156.2L304.8-156.2z"/>
		</g>
	</g>
</pattern>
<rect class="st3" width="1920" height="1080"/>
</svg>
