<svg xmlns="http://www.w3.org/2000/svg" viewBox="0 0 1246.33 424.13"><defs><style>.cls-1{fill:#2254c4;}.cls-2{fill:#4dc3f7;}</style></defs><g id="Layer_2" data-name="Layer 2"><g id="Layer_1-2" data-name="Layer 1"><path class="cls-1" d="M401.79,178c0-29.27-17.91-46.2-23.8-51.76l-1-.94v0a12.14,12.14,0,0,0-2.08-1.85L196.44,1.82a10,10,0,0,0-9.79-1L7.4,79.58C3.27,81.4.4,85.83,0,91S1.88,101,5.7,103.61L184.94,224.92a10.21,10.21,0,0,0,5.73,1.8,10,10,0,0,0,4-.85L366.9,150.2c5.11,5.33,12,14.49,12,27.76s-5.36,25.53-15.9,36.74L191.31,292.18,0,161.19v30.94L189.27,321.71l177.88-80.26a42.15,42.15,0,0,1,11.78,28.88c.05,23.76-10,34.73-15,38.68L191.38,384.72,0,253.7v30.94L189.22,414.18l185.34-81.31,1.11-.92c7.88-5.9,26.2-23.72,26.12-61.69a70.05,70.05,0,0,0-15.93-44.72A79.72,79.72,0,0,0,401.79,178Z"/><path class="cls-2" d="M419.71,247.21A90.45,90.45,0,0,1,426,213.64a88.81,88.81,0,0,1,17-27.53,78.49,78.49,0,0,1,25.44-18.46,76,76,0,0,1,62.43,0,80.3,80.3,0,0,1,25.59,18.46,87.23,87.23,0,0,1,17.17,27.53,93.42,93.42,0,0,1,0,67.14,84.94,84.94,0,0,1-17.17,27.36,81.36,81.36,0,0,1-25.59,18.29,76,76,0,0,1-62.43,0A79.4,79.4,0,0,1,443,308.14a86.5,86.5,0,0,1-17-27.36A90.41,90.41,0,0,1,419.71,247.21Zm25.29,0A60.05,60.05,0,0,0,449.37,270a62.52,62.52,0,0,0,11.7,18.79,54.45,54.45,0,0,0,17.32,12.76,50.3,50.3,0,0,0,42.46,0,56.48,56.48,0,0,0,17.48-12.76A61.1,61.1,0,0,0,550.18,270a61.82,61.82,0,0,0,0-45.66,63.52,63.52,0,0,0-11.85-19,55.59,55.59,0,0,0-17.48-12.93,50.3,50.3,0,0,0-42.46,0,53.63,53.63,0,0,0-17.32,12.93,65.05,65.05,0,0,0-11.7,19A59.94,59.94,0,0,0,445,247.21Z"/><path class="cls-2" d="M602.31,247.21a90.45,90.45,0,0,1,6.24-33.57,88.6,88.6,0,0,1,17-27.53A78.6,78.6,0,0,1,651,167.65a76,76,0,0,1,62.43,0A80.34,80.34,0,0,1,739,186.11a87.23,87.23,0,0,1,17.17,27.53,93.42,93.42,0,0,1,0,67.14A84.94,84.94,0,0,1,739,308.14a81.4,81.4,0,0,1-25.6,18.29,76,76,0,0,1-62.43,0,79.51,79.51,0,0,1-25.44-18.29,86.48,86.48,0,0,1-17-27.36A90.41,90.41,0,0,1,602.31,247.21Zm25.28,0A60.05,60.05,0,0,0,632,270a62.72,62.72,0,0,0,11.7,18.79A54.38,54.38,0,0,0,661,301.59a50.28,50.28,0,0,0,42.45,0,56.48,56.48,0,0,0,17.48-12.76A61.32,61.32,0,0,0,732.78,270a62,62,0,0,0,0-45.66,63.75,63.75,0,0,0-11.86-19,55.59,55.59,0,0,0-17.48-12.93,50.28,50.28,0,0,0-42.45,0,53.56,53.56,0,0,0-17.33,12.93,65.05,65.05,0,0,0-11.7,19A59.94,59.94,0,0,0,627.59,247.21Z"/><path class="cls-2" d="M796.45,321.74V87.42a8.12,8.12,0,0,1,1.72-5.2A6.15,6.15,0,0,1,803.32,80h12.79a7.14,7.14,0,0,1,5,2,7,7,0,0,1,2.19,5.37V229.76l54-60.76a32.69,32.69,0,0,1,3.59-3.36,7.74,7.74,0,0,1,4.84-1.34h21.85c3.12,0,4.69,1.23,4.69,3.69a6.1,6.1,0,0,1-.48,2.85,28.33,28.33,0,0,1-2,2.85L862,226.06l71.79,94c1.87,2,2.81,3.81,2.81,5.36,0,2.47-1.77,3.69-5.3,3.69H909.75a9,9,0,0,1-4.53-1.34,13.12,13.12,0,0,1-4.21-4l-57.75-77.21-20,22.16v53q0,7.38-7.18,7.38H803.32Q796.45,329.13,796.45,321.74Z"/><path class="cls-2" d="M978.74,87.42V321.74q0,7.38-6.87,7.38H958.76q-6.87,0-6.87-7.38V87.42q0-7.38,6.87-7.38h13.11Q978.74,80,978.74,87.42Z"/><path class="cls-2" d="M1074.87,331.81a14.51,14.51,0,0,0-2.35.17,19.41,19.41,0,0,1-2.65.17A89.16,89.16,0,0,1,1055.3,331a26.89,26.89,0,0,1-12.45-5.37q-5.37-4.2-8.68-12.26t-3.31-21.48V191.15h-18.73a9.52,9.52,0,0,1-5.78-1.51q-2-1.5-2-5.87V171.35q0-4.36,2-5.71a10.49,10.49,0,0,1,5.78-1.34h18.73V117q0-5.37,5.36-6.71l16.1-2.35c2.53,0,4.16.9,4.89,2.68a15.77,15.77,0,0,1,1.11,6V164.3h23.09q6.87,0,6.87,7.73v11.08q0,8.05-6.87,8h-23.09v90a83.2,83.2,0,0,0,.78,13.09,14.14,14.14,0,0,0,2.8,7.05,8.36,8.36,0,0,0,5.15,2.86,51,51,0,0,0,7.8.5q7.8,0,7.81,8.4v10.74C1082.67,328.67,1080.06,331.36,1074.87,331.81Z"/><path d="M703.21,377c5.78,0,8.09.75,10,2.51,2.21,2,3.06,5.57,2.41,9.14a15.22,15.22,0,0,1-5.58,9.14c-2.86,2-5.52,2.76-10.64,2.76h-5.23l-2.51,13.61h-5.93L692.61,377Zm-8.08,18.33h5.12a11.68,11.68,0,0,0,6-1.26,7.52,7.52,0,0,0,3.66-5.32c.45-2.51-.35-4.42-1.76-5.33s-3.21-1.2-5.67-1.2h-4.92Z"/><path d="M715,400.47a17.78,17.78,0,0,1,17.23-14.41c9.19,0,13.21,7.13,11.86,14.46a17.78,17.78,0,0,1-17.23,14.42c-9.19,0-13.26-7.09-11.91-14.42Zm5.18.1c-1,5.43,2.36,9.49,7.58,9.49a11.62,11.62,0,0,0,11.1-9.54c1.06-5.47-2.31-9.54-7.53-9.54a11.73,11.73,0,0,0-11.15,9.54Z"/><path d="M747.81,386.86h5.48l2.61,20.64,9.34-19h4.37l2.41,19,10.15-20.64h5.42l-14.16,27.32h-5l-2.31-19.13-9.29,19.13h-5Z"/><path d="M791.05,402.18c-.75,5.52,3.57,8.34,7.69,8.34a10.54,10.54,0,0,0,8.74-4.63h5.42a20.34,20.34,0,0,1-6.78,6.79,16.18,16.18,0,0,1-8.24,2.31c-8.94,0-13.1-7.19-11.8-14.42,1.46-7.83,8.84-14.51,17.13-14.51a11.85,11.85,0,0,1,9.34,4c2.61,3.27,3.17,7.54,1.86,12.11ZM810,398.11c.45-3.62-2.41-7.68-7.64-7.58s-9.49,3.86-10.44,7.58Z"/><path d="M822.39,386.86h4.93l-.76,4a10.58,10.58,0,0,1,9-4.82l-1,5.22h-.35c-4.93,0-8,2.71-9,8.14l-2.72,14.76h-5.22Z"/><path d="M838.21,402.18c-.75,5.52,3.57,8.34,7.69,8.34a10.53,10.53,0,0,0,8.74-4.63h5.42a20.34,20.34,0,0,1-6.78,6.79,16.17,16.17,0,0,1-8.23,2.31c-8.94,0-13.11-7.19-11.81-14.42,1.46-7.83,8.84-14.51,17.13-14.51a11.85,11.85,0,0,1,9.34,4c2.61,3.27,3.17,7.54,1.86,12.11Zm18.94-4.07c.45-3.62-2.41-7.68-7.63-7.58s-9.5,3.86-10.45,7.58Z"/><path d="M892.16,414.18h-5l.91-4.77A13.44,13.44,0,0,1,876.79,415c-8.59,0-12.81-6.63-11.3-14.52,1.55-8.49,8.79-14.41,16.57-14.41,5.58,0,8.39,3.11,9.09,5.27l.91-4.82,1.75-9.49H899Zm-21.5-13.66c-.85,5,1.81,9.59,7.83,9.59a11.59,11.59,0,0,0,7.39-2.86,11.27,11.27,0,0,0,3.91-6.88,7.94,7.94,0,0,0-1.5-6.73,7.81,7.81,0,0,0-6.23-2.71,11.7,11.7,0,0,0-11.35,9.54Z"/><path d="M920.78,377H926l-1.81,9.89-.81,4.32a15.34,15.34,0,0,1,11-5.17c7.09,0,12.86,5.27,11.2,14.36-1.65,8.79-8.94,14.57-16.77,14.57-4.67,0-7.89-2.26-9-5.53l-.86,4.72h-5Zm19.59,23.45c1-5.32-2.31-9.54-7.68-9.54a11.66,11.66,0,0,0-11.2,9.54c-1,5.22,1.9,9.64,7.48,9.64a11.75,11.75,0,0,0,11.35-9.59Z"/><path d="M954.68,413.38l-5.52-26.52h5.62l3.82,20,11.35-20h5.63l-21.85,37.27h-5.57Z"/><path d="M1015.46,405.29l5.12-28.27h5.72l-6.88,37.16H1014l-14.16-28.33-5.18,28.33h-5.72L995.82,377h5.57Z"/><path d="M1033.49,377h5.92l-6.88,37.16h-5.93Z"/><path d="M1051,382.24h-8.53l1-5.22h23l-1,5.22h-8.54L1051,414.18h-5.92Z"/><path d="M1084.41,403.18c-.65,5.58,3.07,6.68,5,6.68a7.66,7.66,0,0,0,7.28-5.92c.75-4.12-2.56-5.08-7-6.83-2.72-1-8.79-3.12-7.54-10.1s7.89-10.7,13.71-10.7c4.78,0,10.25,2.61,9.3,10.25h-5.83c0-2-.35-5.23-4.62-5.23a6.66,6.66,0,0,0-6.58,5.23c-.65,3.61,1.91,4.52,7.48,6.73,4.27,2,8.14,4.32,7,10.34s-6.17,11.26-14.11,11.26c-7.38,0-11.25-4.53-10-11.71Z"/><path d="M1110.78,386.86H1116l-5.07,27.32h-5.22Zm1.81-9.84h5.22l-1,5.52h-5.23Z"/><path d="M1124.64,377h5.23L1123,414.18h-5.22Z"/><path d="M1158.49,404.59a17.83,17.83,0,0,1-15.77,10.4c-8.94,0-13.36-6.89-12-14.47,1.51-8.09,8.89-14.46,17.08-14.46,6.52,0,11.65,4,12.15,10.59h-5.37c-.76-3.66-3.77-5.72-7.49-5.72a10.55,10.55,0,0,0-7.18,2.66,12.46,12.46,0,0,0-4,6.93c-1,5.63,2.36,9.59,7.59,9.59a11.34,11.34,0,0,0,9.54-5.52Z"/><path d="M1168.29,377h5.22l-1.76,9.39-.75,4.27a11.63,11.63,0,0,1,9.74-4.62c4.27,0,6.73,1.4,8,3.81s1.3,5.63.6,9.39l-2.76,14.92h-5.28l2.72-14.66c.45-2.46.4-4.62-.41-6.13s-2.56-2.41-5.27-2.41a8.51,8.51,0,0,0-6.28,2.51,10.52,10.52,0,0,0-2.61,5.27l-2.86,15.42h-5.22Z"/><path d="M1221.17,414.18H1216l.9-4.77a13.65,13.65,0,0,1-11.2,5.58c-8.79,0-12.76-6.84-11.35-14.47,1.56-8.34,8.79-14.46,16.73-14.46,5.42,0,8.33,3,9.09,5.62l.9-4.82h5.22Zm-21.65-13.56c-.7,4.07,1.16,9.49,7.79,9.49a11.13,11.13,0,0,0,9.49-5.42,11.42,11.42,0,0,0,1.71-4.07,8.59,8.59,0,0,0,0-4.07c-.7-3.16-3.32-5.62-7.68-5.62a11.78,11.78,0,0,0-11.26,9.64Z"/><path d="M1233.13,386.86h4.92l-.76,4a10.58,10.58,0,0,1,9-4.82l-.95,5.22H1245c-4.92,0-8,2.71-9,8.14l-2.71,14.76h-5.23Z"/></g></g></svg>