<svg xmlns="http://www.w3.org/2000/svg" viewBox="0 0 1733.47 659.73"><defs><style>.cls-1{fill:#2254c4;}.cls-2{fill:#4dc3f7;}</style></defs><g id="Layer_2" data-name="Layer 2"><g id="Layer_1-2" data-name="Layer 1"><path class="cls-1" d="M640,283.46c0-46.62-28.53-73.59-37.91-82.45-.7-.66-1.27-1.19-1.57-1.49l0,0a19,19,0,0,0-3.31-3L312.89,2.9A15.92,15.92,0,0,0,297.3,1.36L11.79,126.76C5.21,129.65.64,136.71.06,144.9s2.93,16,9,20.14L294.58,358.26a16.25,16.25,0,0,0,9.13,2.87,15.92,15.92,0,0,0,6.41-1.36l274.3-120.53c8.13,8.5,19.15,23.08,19.15,44.23,0,21-8.53,40.66-25.32,58.52L304.73,465.4,0,256.75V306l301.47,206.4L584.82,384.59c8.38,9,18.72,24.42,18.76,46,.08,37.85-16,55.32-23.89,61.62L304.83,612.8,0,404.11v49.28L301.39,659.73,596.61,530.21l1.78-1.47c12.55-9.39,41.73-37.77,41.6-98.25a111.6,111.6,0,0,0-25.38-71.24C635.22,331.14,640,303.23,640,283.46Z"/><path class="cls-2" d="M668.54,393.77a144,144,0,0,1,9.94-53.47,141.05,141.05,0,0,1,27.1-43.85A125.14,125.14,0,0,1,746.1,267a121,121,0,0,1,99.44,0,127.7,127.7,0,0,1,40.77,29.41,138.71,138.71,0,0,1,27.35,43.85,148.78,148.78,0,0,1,0,106.94,135.29,135.29,0,0,1-27.35,43.58A129.72,129.72,0,0,1,845.54,520a121,121,0,0,1-99.44,0,126.66,126.66,0,0,1-40.52-29.14,137.66,137.66,0,0,1-27.1-43.58A143.93,143.93,0,0,1,668.54,393.77Zm40.28,0a95.55,95.55,0,0,0,7,36.36,99.82,99.82,0,0,0,18.64,29.94A86.82,86.82,0,0,0,762,480.39a80.05,80.05,0,0,0,67.62,0,89.9,89.9,0,0,0,27.84-20.32,97.3,97.3,0,0,0,18.89-29.94,98.45,98.45,0,0,0,0-72.72,101.33,101.33,0,0,0-18.89-30.21,88.22,88.22,0,0,0-27.84-20.59,80.05,80.05,0,0,0-67.62,0,85.26,85.26,0,0,0-27.59,20.59,103.55,103.55,0,0,0-18.64,30.21A95.44,95.44,0,0,0,708.82,393.77Z"/><path class="cls-2" d="M959.39,393.77a144,144,0,0,1,9.94-53.47,141.05,141.05,0,0,1,27.1-43.85A125.14,125.14,0,0,1,1037,267a121,121,0,0,1,99.44,0,127.7,127.7,0,0,1,40.77,29.41,138.71,138.71,0,0,1,27.35,43.85,148.78,148.78,0,0,1,0,106.94,135.29,135.29,0,0,1-27.35,43.58A129.72,129.72,0,0,1,1136.39,520a121,121,0,0,1-99.44,0,126.66,126.66,0,0,1-40.52-29.14,137.66,137.66,0,0,1-27.1-43.58A143.93,143.93,0,0,1,959.39,393.77Zm40.27,0a95.55,95.55,0,0,0,7,36.36,99.82,99.82,0,0,0,18.64,29.94,86.82,86.82,0,0,0,27.59,20.32,80.05,80.05,0,0,0,67.62,0,89.9,89.9,0,0,0,27.84-20.32,97.3,97.3,0,0,0,18.89-29.94,98.45,98.45,0,0,0,0-72.72,101.33,101.33,0,0,0-18.89-30.21,88.22,88.22,0,0,0-27.84-20.59,80.05,80.05,0,0,0-67.62,0,85.26,85.26,0,0,0-27.59,20.59,103.55,103.55,0,0,0-18.64,30.21A95.44,95.44,0,0,0,999.66,393.77Z"/><path class="cls-2" d="M1268.63,512.48V139.25a13,13,0,0,1,2.73-8.29c1.82-2.31,4.55-3.48,8.2-3.48h20.38a11.4,11.4,0,0,1,8,3.21,11.1,11.1,0,0,1,3.48,8.56V366l86-96.78a49.87,49.87,0,0,1,5.72-5.35c1.82-1.42,4.39-2.14,7.71-2.14h34.8q7.46,0,7.46,5.88a9.88,9.88,0,0,1-.75,4.54,45.05,45.05,0,0,1-3.23,4.54L1373,360.08,1487.37,509.8c3,3.21,4.48,6.07,4.48,8.55,0,3.93-2.82,5.88-8.45,5.88h-34.31a14.46,14.46,0,0,1-7.21-2.14,21,21,0,0,1-6.71-6.42l-92-123L1311.37,428v84.48q0,11.76-11.43,11.76h-20.38Q1268.63,524.25,1268.63,512.48Z"/><path class="cls-2" d="M1559,139.25V512.48q0,11.76-10.94,11.76h-20.88q-10.94,0-10.94-11.76V139.25q0-11.76,10.94-11.76H1548Q1559,127.49,1559,139.25Z"/><path class="cls-2" d="M1712.1,528.52a23.12,23.12,0,0,0-3.73.27,29.54,29.54,0,0,1-4.23.27,142.38,142.38,0,0,1-23.21-1.87,43,43,0,0,1-19.83-8.56q-8.55-6.68-13.83-19.52T1642,464.89V304.48h-29.83q-6,0-9.2-2.41t-3.23-9.36V272.93q0-6.94,3.23-9.09c2.15-1.42,5.22-2.14,9.2-2.14H1642V186.31q0-8.55,8.55-10.69l25.64-3.74q6,0,7.79,4.28a25.21,25.21,0,0,1,1.76,9.62v75.93h36.79q10.93,0,10.94,12.3v17.65q0,12.84-10.94,12.83h-36.79v143.3a134.51,134.51,0,0,0,1.24,20.85q1.23,7.5,4.47,11.23a13.3,13.3,0,0,0,8.2,4.55,80.72,80.72,0,0,0,12.43.8q12.42,0,12.43,13.37V515.7Q1724.54,527.44,1712.1,528.52Z"/></g></g></svg>