<?xml version="1.0" encoding="utf-8"?>
<!-- Generator: Adobe Illustrator 25.2.0, SVG Export Plug-In . SVG Version: 6.00 Build 0)  -->
<svg version="1.1" id="Capa_1" xmlns="http://www.w3.org/2000/svg" xmlns:xlink="http://www.w3.org/1999/xlink" x="0px" y="0px"
	 viewBox="0 0 50 50" style="enable-background:new 0 0 50 50;" xml:space="preserve">
<style type="text/css">
	.st0{fill:#BABABA;}
</style>
<path class="st0" d="M48.5,41.5l-10.2-9.7c5.2-8,4.2-18.9-2.8-25.9c-8.1-8.1-21.3-8.1-29.4,0s-8.1,21.3,0,29.4
	c6.7,6.7,16.8,7.8,24.7,3.5L41,48.5c2.1,1.9,5.4,1.9,7.4,0C50.5,46.6,50.5,43.4,48.5,41.5z M9.9,31.5c-6-6-6-15.8,0-21.8
	s15.8-6,21.8,0s6,15.8,0,21.8S15.9,37.5,9.9,31.5z"/>
</svg>
